<svg width="145" height="50" viewBox="0 0 145 50" fill="none" xmlns="http://www.w3.org/2000/svg">
<circle cx="118" cy="25" r="25" fill="#0038A8"/>
<path d="M124.414 26.4142C125.195 25.6332 125.195 24.3668 124.414 23.5858L111.686 10.8579C110.905 10.0768 109.639 10.0768 108.858 10.8579C108.077 11.6389 108.077 12.9052 108.858 13.6863L120.172 25L108.858 36.3137C108.077 37.0948 108.077 38.3611 108.858 39.1421C109.639 39.9232 110.905 39.9232 111.686 39.1421L124.414 26.4142ZM2 27L123 27V23L2 23L2 27Z" fill="white"/>
<path d="M10.998 24.73C10.998 24.85 10.974 24.928 10.926 24.964C10.89 24.988 10.818 25 10.71 25H9.648C9.552 25 9.474 24.988 9.414 24.964C9.366 24.928 9.342 24.85 9.342 24.73V13.858H3.006V24.73C3.006 24.85 2.982 24.928 2.934 24.964C2.898 24.988 2.826 25 2.718 25H1.638C1.542 25 1.47 24.988 1.422 24.964C1.374 24.928 1.35 24.85 1.35 24.73V13.516C1.35 13.132 1.446 12.85 1.638 12.67C1.842 12.478 2.1 12.382 2.412 12.382H9.936C10.272 12.382 10.53 12.478 10.71 12.67C10.902 12.85 10.998 13.132 10.998 13.516V24.73ZM21.5558 20.23C21.5558 21.838 21.1898 23.068 20.4578 23.92C19.7378 24.772 18.6878 25.198 17.3078 25.198C15.9518 25.198 14.9198 24.784 14.2118 23.956C13.5038 23.128 13.1498 21.904 13.1498 20.284C13.1498 19.492 13.2518 18.79 13.4558 18.178C13.6718 17.566 13.9658 17.05 14.3378 16.63C14.7218 16.21 15.1718 15.892 15.6878 15.676C16.2038 15.46 16.7618 15.352 17.3618 15.352C18.7298 15.352 19.7678 15.784 20.4758 16.648C21.1958 17.512 21.5558 18.706 21.5558 20.23ZM19.9718 20.284C19.9718 19.816 19.9358 19.366 19.8638 18.934C19.7918 18.49 19.6598 18.106 19.4678 17.782C19.2758 17.446 19.0118 17.176 18.6758 16.972C18.3398 16.768 17.9078 16.666 17.3798 16.666C16.9238 16.666 16.5278 16.762 16.1918 16.954C15.8558 17.146 15.5798 17.404 15.3638 17.728C15.1478 18.052 14.9858 18.43 14.8778 18.862C14.7698 19.294 14.7158 19.75 14.7158 20.23C14.7158 20.77 14.7578 21.268 14.8418 21.724C14.9258 22.168 15.0698 22.552 15.2738 22.876C15.4778 23.188 15.7418 23.434 16.0658 23.614C16.4018 23.794 16.8218 23.884 17.3258 23.884C17.8298 23.884 18.2498 23.782 18.5858 23.578C18.9338 23.374 19.2098 23.104 19.4138 22.768C19.6178 22.432 19.7618 22.048 19.8458 21.616C19.9298 21.184 19.9718 20.74 19.9718 20.284ZM23.4934 23.722C23.7934 23.386 24.0154 22.996 24.1594 22.552C24.3034 22.108 24.4294 21.532 24.5374 20.824L25.2034 16.414C25.2394 16.102 25.3474 15.88 25.5274 15.748C25.7074 15.616 25.9714 15.55 26.3194 15.55H30.7654C31.1614 15.55 31.4074 15.634 31.5034 15.802C31.5994 15.958 31.6474 16.162 31.6474 16.414V23.74L32.1694 23.776C32.4214 23.8 32.5714 23.884 32.6194 24.028C32.6794 24.16 32.7034 24.28 32.6914 24.388L32.4934 27.574C32.4934 27.73 32.4274 27.808 32.2954 27.808H31.3054C31.1974 27.808 31.1374 27.73 31.1254 27.574L31.0174 25H24.2134L24.0334 27.628C24.0334 27.712 24.0094 27.766 23.9614 27.79C23.9254 27.826 23.8834 27.844 23.8354 27.844H22.8454C22.7974 27.844 22.7554 27.832 22.7194 27.808C22.6954 27.784 22.6774 27.724 22.6654 27.628L22.4674 24.406C22.4554 24.262 22.4854 24.13 22.5574 24.01C22.6294 23.878 22.7854 23.8 23.0254 23.776L23.4934 23.722ZM30.0814 16.936H26.5714L26.1394 19.906C26.0434 20.554 25.9594 21.088 25.8874 21.508C25.8274 21.928 25.7614 22.276 25.6894 22.552C25.6294 22.828 25.5574 23.056 25.4734 23.236C25.3894 23.404 25.2934 23.566 25.1854 23.722H30.0814V16.936ZM42.5625 20.266C42.5625 20.95 42.4725 21.592 42.2925 22.192C42.1245 22.78 41.8665 23.302 41.5185 23.758C41.1825 24.202 40.7505 24.556 40.2225 24.82C39.6945 25.072 39.0825 25.198 38.3865 25.198C38.0505 25.198 37.6845 25.18 37.2885 25.144C36.9045 25.108 36.4905 25.024 36.0465 24.892V28.384C36.0465 28.492 36.0225 28.558 35.9745 28.582C35.9385 28.618 35.8725 28.636 35.7765 28.636H34.7685C34.6725 28.636 34.6005 28.618 34.5525 28.582C34.5045 28.558 34.4805 28.492 34.4805 28.384V16.324C34.4805 16.168 34.5525 16.066 34.6965 16.018C35.2965 15.754 35.9145 15.58 36.5505 15.496C37.1865 15.4 37.7925 15.352 38.3685 15.352C39.0885 15.352 39.7125 15.478 40.2405 15.73C40.7685 15.97 41.2005 16.312 41.5365 16.756C41.8845 17.188 42.1425 17.704 42.3105 18.304C42.4785 18.904 42.5625 19.558 42.5625 20.266ZM40.9245 20.266C40.9245 19.606 40.8585 19.048 40.7265 18.592C40.5945 18.136 40.4025 17.77 40.1505 17.494C39.9105 17.218 39.6165 17.02 39.2685 16.9C38.9325 16.768 38.5485 16.702 38.1165 16.702C37.8045 16.702 37.4505 16.732 37.0545 16.792C36.6585 16.852 36.3225 16.936 36.0465 17.044V23.524C36.5025 23.656 36.8925 23.746 37.2165 23.794C37.5525 23.83 37.8585 23.848 38.1345 23.848C38.5425 23.848 38.9145 23.788 39.2505 23.668C39.5985 23.536 39.8925 23.332 40.1325 23.056C40.3845 22.768 40.5765 22.396 40.7085 21.94C40.8525 21.484 40.9245 20.926 40.9245 20.266ZM52.5812 20.23C52.5812 21.838 52.2152 23.068 51.4832 23.92C50.7632 24.772 49.7132 25.198 48.3332 25.198C46.9772 25.198 45.9452 24.784 45.2372 23.956C44.5292 23.128 44.1752 21.904 44.1752 20.284C44.1752 19.492 44.2772 18.79 44.4812 18.178C44.6972 17.566 44.9912 17.05 45.3632 16.63C45.7472 16.21 46.1972 15.892 46.7132 15.676C47.2292 15.46 47.7872 15.352 48.3872 15.352C49.7552 15.352 50.7932 15.784 51.5012 16.648C52.2212 17.512 52.5812 18.706 52.5812 20.23ZM50.9972 20.284C50.9972 19.816 50.9612 19.366 50.8892 18.934C50.8172 18.49 50.6852 18.106 50.4932 17.782C50.3012 17.446 50.0372 17.176 49.7012 16.972C49.3652 16.768 48.9332 16.666 48.4052 16.666C47.9492 16.666 47.5532 16.762 47.2172 16.954C46.8812 17.146 46.6052 17.404 46.3892 17.728C46.1732 18.052 46.0112 18.43 45.9032 18.862C45.7952 19.294 45.7412 19.75 45.7412 20.23C45.7412 20.77 45.7832 21.268 45.8672 21.724C45.9512 22.168 46.0952 22.552 46.2992 22.876C46.5032 23.188 46.7672 23.434 47.0912 23.614C47.4272 23.794 47.8472 23.884 48.3512 23.884C48.8552 23.884 49.2752 23.782 49.6112 23.578C49.9592 23.374 50.2352 23.104 50.4392 22.768C50.6432 22.432 50.7872 22.048 50.8712 21.616C50.9552 21.184 50.9972 20.74 50.9972 20.284ZM58.2628 23.902C58.8028 23.902 59.2468 23.806 59.5948 23.614C59.9428 23.41 60.2188 23.152 60.4228 22.84C60.6388 22.528 60.7888 22.186 60.8728 21.814C60.9568 21.43 60.9988 21.058 60.9988 20.698C60.9988 20.29 60.9628 19.894 60.8908 19.51C60.8188 19.114 60.6928 18.766 60.5128 18.466C60.3448 18.166 60.1108 17.926 59.8108 17.746C59.5108 17.554 59.1268 17.458 58.6588 17.458C58.2148 17.458 57.7348 17.548 57.2188 17.728C56.7028 17.896 56.2288 18.142 55.7968 18.466C55.7488 19.018 55.7188 19.462 55.7068 19.798C55.6948 20.122 55.6888 20.44 55.6888 20.752C55.6888 21.208 55.7308 21.628 55.8148 22.012C55.8988 22.396 56.0368 22.732 56.2288 23.02C56.4328 23.296 56.6968 23.512 57.0208 23.668C57.3568 23.824 57.7708 23.902 58.2628 23.902ZM58.8928 16.18C59.6008 16.18 60.1888 16.306 60.6568 16.558C61.1368 16.798 61.5208 17.128 61.8088 17.548C62.0968 17.956 62.3008 18.43 62.4208 18.97C62.5408 19.498 62.6008 20.05 62.6008 20.626C62.6008 21.13 62.5288 21.652 62.3848 22.192C62.2528 22.732 62.0188 23.224 61.6828 23.668C61.3468 24.112 60.8968 24.478 60.3328 24.766C59.7688 25.054 59.0548 25.198 58.1908 25.198C57.3268 25.198 56.6308 25.066 56.1028 24.802C55.5748 24.526 55.1668 24.172 54.8788 23.74C54.5908 23.296 54.3988 22.804 54.3028 22.264C54.2068 21.724 54.1588 21.184 54.1588 20.644C54.1588 19.504 54.2008 18.49 54.2848 17.602C54.3688 16.714 54.5428 15.94 54.8068 15.28C55.0708 14.62 55.4488 14.068 55.9408 13.624C56.4448 13.168 57.1048 12.814 57.9208 12.562C58.1608 12.49 58.4248 12.424 58.7128 12.364C59.0008 12.292 59.2888 12.226 59.5768 12.166C59.8648 12.106 60.1408 12.052 60.4048 12.004C60.6808 11.956 60.9268 11.908 61.1428 11.86C61.2508 11.836 61.3288 11.83 61.3768 11.842C61.4248 11.854 61.4608 11.908 61.4848 12.004L61.6468 12.706C61.7188 12.946 61.6528 13.09 61.4488 13.138C60.5248 13.318 59.7388 13.486 59.0908 13.642C58.5148 13.786 58.0348 13.948 57.6508 14.128C57.2788 14.296 56.9788 14.512 56.7508 14.776C56.5228 15.028 56.3488 15.34 56.2288 15.712C56.1088 16.072 56.0128 16.516 55.9408 17.044C55.9528 17.044 55.9648 17.05 55.9768 17.062C56.4328 16.75 56.9248 16.528 57.4528 16.396C57.9808 16.252 58.4608 16.18 58.8928 16.18ZM66.1763 24.676C66.1763 24.808 66.1463 24.898 66.0863 24.946C66.0383 24.982 65.9543 25 65.8343 25H64.9523C64.8323 25 64.7423 24.982 64.6823 24.946C64.6223 24.898 64.5923 24.808 64.5923 24.676V15.856C64.5923 15.724 64.6223 15.64 64.6823 15.604C64.7423 15.568 64.8323 15.55 64.9523 15.55H65.8343C65.9543 15.55 66.0383 15.568 66.0863 15.604C66.1463 15.64 66.1763 15.724 66.1763 15.856V19.258H70.8203V15.856C70.8203 15.724 70.8443 15.64 70.8923 15.604C70.9523 15.568 71.0423 15.55 71.1623 15.55H72.0443C72.1763 15.55 72.2603 15.568 72.2963 15.604C72.3443 15.64 72.3683 15.724 72.3683 15.856V24.676C72.3683 24.808 72.3443 24.898 72.2963 24.946C72.2603 24.982 72.1763 25 72.0443 25H71.1623C71.0423 25 70.9523 24.982 70.8923 24.946C70.8443 24.898 70.8203 24.808 70.8203 24.676V20.59H66.1763V24.676ZM78.55 15.352C79.234 15.352 79.822 15.448 80.314 15.64C80.818 15.832 81.226 16.108 81.538 16.468C81.862 16.816 82.102 17.236 82.258 17.728C82.414 18.208 82.492 18.742 82.492 19.33C82.492 19.618 82.456 19.852 82.384 20.032C82.312 20.212 82.21 20.356 82.078 20.464C81.958 20.56 81.814 20.632 81.646 20.68C81.49 20.716 81.322 20.734 81.142 20.734H75.976C75.976 21.298 76.054 21.778 76.21 22.174C76.366 22.57 76.57 22.894 76.822 23.146C77.086 23.386 77.386 23.56 77.722 23.668C78.07 23.776 78.442 23.83 78.838 23.83C79.234 23.83 79.624 23.782 80.008 23.686C80.392 23.578 80.71 23.458 80.962 23.326C81.106 23.242 81.22 23.272 81.304 23.416L81.682 24.172C81.766 24.34 81.73 24.46 81.574 24.532C81.142 24.796 80.674 24.97 80.17 25.054C79.678 25.15 79.192 25.198 78.712 25.198C78.04 25.198 77.434 25.102 76.894 24.91C76.366 24.718 75.916 24.424 75.544 24.028C75.172 23.632 74.884 23.128 74.68 22.516C74.488 21.904 74.392 21.172 74.392 20.32C74.392 19.528 74.494 18.826 74.698 18.214C74.914 17.59 75.208 17.068 75.58 16.648C75.952 16.228 76.39 15.91 76.894 15.694C77.398 15.466 77.95 15.352 78.55 15.352ZM81.016 19.474C81.016 19.102 80.98 18.748 80.908 18.412C80.836 18.064 80.704 17.764 80.512 17.512C80.332 17.248 80.08 17.044 79.756 16.9C79.444 16.744 79.048 16.666 78.568 16.666C78.172 16.666 77.818 16.744 77.506 16.9C77.206 17.056 76.948 17.266 76.732 17.53C76.528 17.782 76.366 18.076 76.246 18.412C76.126 18.748 76.054 19.102 76.03 19.474H81.016ZM88.2356 15.352C88.9196 15.352 89.5076 15.448 89.9996 15.64C90.5036 15.832 90.9116 16.108 91.2236 16.468C91.5476 16.816 91.7876 17.236 91.9436 17.728C92.0996 18.208 92.1776 18.742 92.1776 19.33C92.1776 19.618 92.1416 19.852 92.0696 20.032C91.9976 20.212 91.8956 20.356 91.7636 20.464C91.6436 20.56 91.4996 20.632 91.3316 20.68C91.1756 20.716 91.0076 20.734 90.8276 20.734H85.6616C85.6616 21.298 85.7396 21.778 85.8956 22.174C86.0516 22.57 86.2556 22.894 86.5076 23.146C86.7716 23.386 87.0716 23.56 87.4076 23.668C87.7556 23.776 88.1276 23.83 88.5236 23.83C88.9196 23.83 89.3096 23.782 89.6936 23.686C90.0776 23.578 90.3956 23.458 90.6476 23.326C90.7916 23.242 90.9056 23.272 90.9896 23.416L91.3676 24.172C91.4516 24.34 91.4156 24.46 91.2596 24.532C90.8276 24.796 90.3596 24.97 89.8556 25.054C89.3636 25.15 88.8776 25.198 88.3976 25.198C87.7256 25.198 87.1196 25.102 86.5796 24.91C86.0516 24.718 85.6016 24.424 85.2296 24.028C84.8576 23.632 84.5696 23.128 84.3656 22.516C84.1736 21.904 84.0776 21.172 84.0776 20.32C84.0776 19.528 84.1796 18.826 84.3836 18.214C84.5996 17.59 84.8936 17.068 85.2656 16.648C85.6376 16.228 86.0756 15.91 86.5796 15.694C87.0836 15.466 87.6356 15.352 88.2356 15.352ZM90.7016 19.474C90.7016 19.102 90.6656 18.748 90.5936 18.412C90.5216 18.064 90.3896 17.764 90.1976 17.512C90.0176 17.248 89.7656 17.044 89.4416 16.9C89.1296 16.744 88.7336 16.666 88.2536 16.666C87.8576 16.666 87.5036 16.744 87.1916 16.9C86.8916 17.056 86.6336 17.266 86.4176 17.53C86.2136 17.782 86.0516 18.076 85.9316 18.412C85.8116 18.748 85.7396 19.102 85.7156 19.474H90.7016Z" fill="black"/>
</svg>
