<svg width="51" height="82" viewBox="0 0 51 82" fill="none" xmlns="http://www.w3.org/2000/svg">
<g clip-path="url(#clip0_86_2)">
<mask id="path-1-inside-1_86_2" fill="white">
<path d="M23 14.1421L37.1421 -4.55379e-05L51.2843 14.1421L37.1421 28.2842L23 14.1421Z"/>
</mask>
<path d="M23 14.1421L20.1716 11.3137L17.3431 14.1421L20.1716 16.9705L23 14.1421ZM25.8284 16.9705L39.9706 2.82838L34.3137 -2.82847L20.1716 11.3137L25.8284 16.9705ZM39.9706 25.4558L25.8284 11.3137L20.1716 16.9705L34.3137 31.1127L39.9706 25.4558Z" fill="#0038A8" mask="url(#path-1-inside-1_86_2)"/>
<mask id="path-3-inside-2_86_2" fill="white">
<path d="M23 36.8L37.1421 22.6579L51.2843 36.8L37.1421 50.9422L23 36.8Z"/>
</mask>
<path d="M23 36.8L20.1716 33.9716L17.3431 36.8L20.1716 39.6285L23 36.8ZM25.8284 39.6285L39.9706 25.4863L34.3137 19.8295L20.1716 33.9716L25.8284 39.6285ZM39.9706 48.1138L25.8284 33.9716L20.1716 39.6285L34.3137 53.7706L39.9706 48.1138Z" fill="#0038A8" mask="url(#path-3-inside-2_86_2)"/>
<mask id="path-5-inside-3_86_2" fill="white">
<path d="M0 14.1421L14.1421 -4.55379e-05L28.2843 14.1421L14.1421 28.2842L0 14.1421Z"/>
</mask>
<path d="M28.2843 14.1421L31.1127 16.9705L33.9411 14.1421L31.1127 11.3137L28.2843 14.1421ZM11.3137 2.82838L25.4558 16.9705L31.1127 11.3137L16.9706 -2.82847L11.3137 2.82838ZM25.4558 11.3137L11.3137 25.4558L16.9706 31.1127L31.1127 16.9705L25.4558 11.3137Z" fill="#0038A8" mask="url(#path-5-inside-3_86_2)"/>
<mask id="path-7-inside-4_86_2" fill="white">
<path d="M0 36.8L14.1421 22.6579L28.2843 36.8L14.1421 50.9422L0 36.8Z"/>
</mask>
<path d="M28.2843 36.8L31.1127 39.6285L33.9411 36.8L31.1127 33.9716L28.2843 36.8ZM11.3137 25.4863L25.4558 39.6285L31.1127 33.9716L16.9706 19.8295L11.3137 25.4863ZM25.4558 33.9716L11.3137 48.1138L16.9706 53.7706L31.1127 39.6285L25.4558 33.9716Z" fill="#0038A8" mask="url(#path-7-inside-4_86_2)"/>
<mask id="path-9-inside-5_86_2" fill="white">
<path d="M25.571 23L51.1421 48.5711L25.571 74.1422L-4.51058e-05 48.5711L25.571 23Z"/>
</mask>
<path d="M25.571 74.1422L22.7426 76.9706C24.3047 78.5327 26.8374 78.5327 28.3995 76.9706L25.571 74.1422ZM48.3137 45.7427L22.7426 71.3138L28.3995 76.9706L53.9706 51.3995L48.3137 45.7427ZM28.3995 71.3138L2.82838 45.7427L-2.82847 51.3995L22.7426 76.9706L28.3995 71.3138Z" fill="#0038A8" mask="url(#path-9-inside-5_86_2)"/>
</g>
<defs>
<clipPath id="clip0_86_2">
<rect width="51" height="82" fill="white"/>
</clipPath>
</defs>
</svg>
