<svg width="45" height="59" viewBox="0 0 45 59" fill="none" xmlns="http://www.w3.org/2000/svg">
<rect x="28.9915" y="29.5563" width="19" height="19" transform="rotate(135 28.9915 29.5563)" fill="white" stroke="#0038A8" stroke-width="3"/>
<mask id="path-2-inside-1_123_235" fill="white">
<path d="M45.1128 15.5563L29.5564 -1.34706e-05L14.0001 15.5563L29.5564 31.1127L45.1128 15.5563Z"/>
</mask>
<path d="M31.6778 2.12131L16.1214 17.6777L11.8788 13.435L27.4351 -2.12133L31.6778 2.12131ZM27.4351 28.9914L42.9915 13.435L47.2341 17.6777L31.6778 33.234L27.4351 28.9914Z" fill="#0038A8" mask="url(#path-2-inside-1_123_235)"/>
<mask id="path-4-inside-2_123_235" fill="white">
<path d="M45.1128 43.5563L29.5564 28L14.0001 43.5563L29.5564 59.1127L45.1128 43.5563Z"/>
</mask>
<path d="M29.5564 28L27.4351 25.8787L29.5564 23.7573L31.6778 25.8787L29.5564 28ZM14.0001 43.5563L11.8788 45.6777L9.75745 43.5563L11.8788 41.435L14.0001 43.5563ZM42.9915 45.6777L27.4351 30.1213L31.6778 25.8787L47.2341 41.435L42.9915 45.6777ZM31.6778 30.1213L16.1214 45.6777L11.8788 41.435L27.4351 25.8787L31.6778 30.1213ZM16.1214 41.435L31.6778 56.9914L27.4351 61.234L11.8788 45.6777L16.1214 41.435Z" fill="#0038A8" mask="url(#path-4-inside-2_123_235)"/>
</svg>
