<svg width="300" height="380" viewBox="0 0 300 380" fill="none" xmlns="http://www.w3.org/2000/svg">
<g clip-path="url(#clip0_220_82)">
<rect width="300" height="380" rx="15" fill="url(#paint0_linear_220_82)"/>
<path d="M18.36 190.032C18.36 185.496 21.888 182.328 26.136 182.328H28.728V178.44H32.472V182.328H35.064C39.348 182.328 42.84 185.496 42.84 190.032C42.84 194.604 39.348 197.772 35.064 197.772H32.472V204H28.728V197.772H26.1C21.852 197.772 18.36 194.604 18.36 190.032ZM22.104 190.032C22.104 192.696 24.084 194.028 26.28 194.028H28.728V186H26.28C24.084 186 22.104 187.404 22.104 190.032ZM34.884 194.064C37.08 194.064 39.096 192.696 39.096 189.96C39.096 187.404 37.08 186 34.884 186H32.472V194.064H34.884ZM51.559 178.44C55.447 178.44 58.507 181.5 58.507 185.28V197.52C58.507 201.264 55.447 204.36 51.559 204.36C47.743 204.36 44.647 201.264 44.647 197.52V185.28C44.647 181.5 47.743 178.44 51.559 178.44ZM54.763 185.316C54.763 183.588 53.323 182.184 51.559 182.184C49.867 182.184 48.391 183.588 48.391 185.316V197.484C48.391 199.176 49.867 200.58 51.559 200.58C53.323 200.58 54.763 199.176 54.763 197.484V185.316ZM74.3414 178.8V182.544H69.4814V204H65.7374V182.544H60.8414V178.8H74.3414ZM83.5864 178.44C87.4744 178.44 90.5344 181.5 90.5344 185.28V197.52C90.5344 201.264 87.4744 204.36 83.5864 204.36C79.7704 204.36 76.6744 201.264 76.6744 197.52V185.28C76.6744 181.5 79.7704 178.44 83.5864 178.44ZM86.7904 185.316C86.7904 183.588 85.3504 182.184 83.5864 182.184C81.8944 182.184 80.4184 183.588 80.4184 185.316V197.484C80.4184 199.176 81.8944 200.58 83.5864 200.58C85.3504 200.58 86.7904 199.176 86.7904 197.484V185.316ZM110.411 178.44C114.299 178.44 117.359 181.5 117.359 185.28V197.52C117.359 201.264 114.299 204.36 110.411 204.36C106.595 204.36 103.499 201.264 103.499 197.52V185.28C103.499 181.5 106.595 178.44 110.411 178.44ZM113.615 185.316C113.615 183.588 112.175 182.184 110.411 182.184C108.719 182.184 107.243 183.588 107.243 185.316V197.484C107.243 199.176 108.719 200.58 110.411 200.58C112.175 200.58 113.615 199.176 113.615 197.484V185.316ZM133.193 178.8V182.544H128.333V204H124.589V182.544H119.693V178.8H133.193ZM135.526 185.244C135.526 181.464 138.586 178.44 142.33 178.44C146.11 178.44 149.17 181.464 149.17 185.244V185.748H145.462L145.426 185.244C145.282 183.336 144.022 182.148 142.33 182.148C140.638 182.148 139.27 183.516 139.27 185.244V197.556C139.27 199.248 140.638 200.616 142.33 200.616C144.022 200.616 145.282 199.464 145.426 197.556L145.462 197.052H149.206L149.17 197.556C148.882 201.48 146.11 204.36 142.33 204.36C138.586 204.36 135.526 201.3 135.526 197.556V185.244ZM157.173 204L152.997 203.964L156.741 194.46L151.017 178.8H155.121L158.865 189.204L162.969 178.8H167.145L157.173 204ZM181.533 178.8V182.544H176.673V204H172.929V182.544H168.033V178.8H181.533ZM183.866 185.244C183.866 181.464 186.926 178.44 190.67 178.44C194.45 178.44 197.51 181.464 197.51 185.244V185.748H193.802L193.766 185.244C193.622 183.336 192.362 182.148 190.67 182.148C188.978 182.148 187.61 183.516 187.61 185.244V197.556C187.61 199.248 188.978 200.616 190.67 200.616C192.362 200.616 193.622 199.464 193.766 197.556L193.802 197.052H197.546L197.51 197.556C197.222 201.48 194.45 204.36 190.67 204.36C186.926 204.36 183.866 201.3 183.866 197.556V185.244ZM212.857 178.8V182.544H207.997V204H204.253V182.544H199.357V178.8H212.857ZM222.642 200.256C224.622 200.256 226.134 198.852 226.134 196.692C226.134 194.388 224.622 193.056 222.642 193.056H219.294V200.256H222.642ZM222.714 189.276C224.622 189.276 226.134 188.016 226.134 185.82C226.134 183.804 224.622 182.544 222.714 182.544H219.294V189.276H222.714ZM222.858 204H215.55V178.8H222.93C226.854 178.8 229.842 181.788 229.914 185.748C229.95 188.016 228.978 189.78 227.394 191.04C229.014 192.336 229.95 194.64 229.914 196.944C229.842 200.868 226.782 204 222.858 204ZM238.244 204L234.068 203.964L237.812 194.46L232.088 178.8H236.192L239.936 189.204L244.04 178.8H248.216L238.244 204ZM256.411 204.36C252.631 204.36 249.643 201.192 249.643 197.304V185.604C249.643 181.644 252.847 178.44 256.663 178.44C260.479 178.44 263.503 181.644 263.503 185.604V193.704H253.387V197.304C253.387 199.14 254.647 200.652 256.411 200.652C257.887 200.652 259.075 199.644 259.507 198.312H263.251C262.747 201.732 259.831 204.36 256.411 204.36ZM253.387 189.96H259.759V185.532C259.759 183.696 258.355 182.184 256.591 182.184C254.827 182.184 253.387 183.696 253.387 185.532V189.96ZM279.162 178.8V182.544H274.302V204H270.558V182.544H265.662V178.8H279.162Z" fill="white"/>
</g>
<defs>
<linearGradient id="paint0_linear_220_82" x1="150" y1="0" x2="150" y2="380" gradientUnits="userSpaceOnUse">
<stop stop-color="#6F93F3"/>
<stop offset="1" stop-color="#008000"/>
</linearGradient>
<clipPath id="clip0_220_82">
<rect width="300" height="380" fill="white"/>
</clipPath>
</defs>
</svg>
