<svg width="175" height="115" viewBox="0 0 175 115" fill="none" xmlns="http://www.w3.org/2000/svg">
<rect width="175" height="115" fill="white"/>
<path d="M23.128 33.442C23.824 33.466 24.466 33.586 25.054 33.802C25.642 34.018 26.14 34.33 26.548 34.738C26.968 35.146 27.292 35.65 27.52 36.25C27.76 36.838 27.88 37.51 27.88 38.266C27.88 38.962 27.778 39.604 27.574 40.192C27.382 40.768 27.088 41.272 26.692 41.704C26.296 42.136 25.798 42.484 25.198 42.748C24.61 43 23.92 43.15 23.128 43.198V46.384C23.128 46.492 23.104 46.558 23.056 46.582C23.02 46.618 22.948 46.636 22.84 46.636H21.832C21.736 46.636 21.664 46.618 21.616 46.582C21.568 46.558 21.544 46.492 21.544 46.384V43.198C20.764 43.15 20.074 43 19.474 42.748C18.886 42.484 18.394 42.136 17.998 41.704C17.602 41.272 17.302 40.768 17.098 40.192C16.906 39.604 16.81 38.962 16.81 38.266C16.81 37.51 16.924 36.838 17.152 36.25C17.392 35.65 17.722 35.146 18.142 34.738C18.574 34.33 19.078 34.018 19.654 33.802C20.23 33.586 20.86 33.466 21.544 33.442V30.112C21.544 29.992 21.568 29.92 21.616 29.896C21.664 29.86 21.736 29.842 21.832 29.842H22.84C22.948 29.842 23.02 29.86 23.056 29.896C23.104 29.92 23.128 29.992 23.128 30.112V33.442ZM26.368 38.302C26.368 37.258 26.098 36.424 25.558 35.8C25.018 35.164 24.208 34.816 23.128 34.756V41.92C23.716 41.872 24.214 41.74 24.622 41.524C25.03 41.308 25.36 41.038 25.612 40.714C25.876 40.39 26.068 40.024 26.188 39.616C26.308 39.196 26.368 38.758 26.368 38.302ZM18.304 38.302C18.304 38.758 18.37 39.196 18.502 39.616C18.634 40.024 18.832 40.396 19.096 40.732C19.372 41.056 19.708 41.326 20.104 41.542C20.512 41.746 20.992 41.872 21.544 41.92V34.756C20.464 34.816 19.654 35.164 19.114 35.8C18.574 36.424 18.304 37.258 18.304 38.302ZM37.9074 38.23C37.9074 39.838 37.5414 41.068 36.8094 41.92C36.0894 42.772 35.0394 43.198 33.6594 43.198C32.3034 43.198 31.2714 42.784 30.5634 41.956C29.8554 41.128 29.5014 39.904 29.5014 38.284C29.5014 37.492 29.6034 36.79 29.8074 36.178C30.0234 35.566 30.3174 35.05 30.6894 34.63C31.0734 34.21 31.5234 33.892 32.0394 33.676C32.5554 33.46 33.1134 33.352 33.7134 33.352C35.0814 33.352 36.1194 33.784 36.8274 34.648C37.5474 35.512 37.9074 36.706 37.9074 38.23ZM36.3234 38.284C36.3234 37.816 36.2874 37.366 36.2154 36.934C36.1434 36.49 36.0114 36.106 35.8194 35.782C35.6274 35.446 35.3634 35.176 35.0274 34.972C34.6914 34.768 34.2594 34.666 33.7314 34.666C33.2754 34.666 32.8794 34.762 32.5434 34.954C32.2074 35.146 31.9314 35.404 31.7154 35.728C31.4994 36.052 31.3374 36.43 31.2294 36.862C31.1214 37.294 31.0674 37.75 31.0674 38.23C31.0674 38.77 31.1094 39.268 31.1934 39.724C31.2774 40.168 31.4214 40.552 31.6254 40.876C31.8294 41.188 32.0934 41.434 32.4174 41.614C32.7534 41.794 33.1734 41.884 33.6774 41.884C34.1814 41.884 34.6014 41.782 34.9374 41.578C35.2854 41.374 35.5614 41.104 35.7654 40.768C35.9694 40.432 36.1134 40.048 36.1974 39.616C36.2814 39.184 36.3234 38.74 36.3234 38.284ZM43.5349 42.676C43.5349 42.808 43.5109 42.898 43.4629 42.946C43.4149 42.982 43.3309 43 43.2109 43H42.3289C42.2089 43 42.1249 42.982 42.0769 42.946C42.0289 42.898 42.0049 42.808 42.0049 42.676V34.9H39.2149C39.0829 34.9 38.9929 34.876 38.9449 34.828C38.9089 34.768 38.8909 34.69 38.8909 34.594V33.892C38.8909 33.784 38.9089 33.7 38.9449 33.64C38.9929 33.58 39.0829 33.55 39.2149 33.55H46.4509C46.5949 33.55 46.6849 33.58 46.7209 33.64C46.7569 33.7 46.7749 33.784 46.7749 33.892V34.594C46.7749 34.69 46.7569 34.768 46.7209 34.828C46.6849 34.876 46.5949 34.9 46.4509 34.9H43.5349V42.676ZM56.1711 38.23C56.1711 39.838 55.8051 41.068 55.0731 41.92C54.3531 42.772 53.3031 43.198 51.9231 43.198C50.5671 43.198 49.5351 42.784 48.8271 41.956C48.1191 41.128 47.7651 39.904 47.7651 38.284C47.7651 37.492 47.8671 36.79 48.0711 36.178C48.2871 35.566 48.5811 35.05 48.9531 34.63C49.3371 34.21 49.7871 33.892 50.3031 33.676C50.8191 33.46 51.3771 33.352 51.9771 33.352C53.3451 33.352 54.3831 33.784 55.0911 34.648C55.8111 35.512 56.1711 36.706 56.1711 38.23ZM54.5871 38.284C54.5871 37.816 54.5511 37.366 54.4791 36.934C54.4071 36.49 54.2751 36.106 54.0831 35.782C53.8911 35.446 53.6271 35.176 53.2911 34.972C52.9551 34.768 52.5231 34.666 51.9951 34.666C51.5391 34.666 51.1431 34.762 50.8071 34.954C50.4711 35.146 50.1951 35.404 49.9791 35.728C49.7631 36.052 49.6011 36.43 49.4931 36.862C49.3851 37.294 49.3311 37.75 49.3311 38.23C49.3311 38.77 49.3731 39.268 49.4571 39.724C49.5411 40.168 49.6851 40.552 49.8891 40.876C50.0931 41.188 50.3571 41.434 50.6811 41.614C51.0171 41.794 51.4371 41.884 51.9411 41.884C52.4451 41.884 52.8651 41.782 53.2011 41.578C53.5491 41.374 53.8251 41.104 54.0291 40.768C54.2331 40.432 54.3771 40.048 54.4611 39.616C54.5451 39.184 54.5871 38.74 54.5871 38.284ZM71.0422 38.23C71.0422 39.838 70.6762 41.068 69.9442 41.92C69.2242 42.772 68.1742 43.198 66.7942 43.198C65.4382 43.198 64.4062 42.784 63.6982 41.956C62.9902 41.128 62.6362 39.904 62.6362 38.284C62.6362 37.492 62.7382 36.79 62.9422 36.178C63.1582 35.566 63.4522 35.05 63.8242 34.63C64.2082 34.21 64.6582 33.892 65.1742 33.676C65.6902 33.46 66.2482 33.352 66.8482 33.352C68.2162 33.352 69.2542 33.784 69.9622 34.648C70.6822 35.512 71.0422 36.706 71.0422 38.23ZM69.4582 38.284C69.4582 37.816 69.4222 37.366 69.3502 36.934C69.2782 36.49 69.1462 36.106 68.9542 35.782C68.7622 35.446 68.4982 35.176 68.1622 34.972C67.8262 34.768 67.3942 34.666 66.8662 34.666C66.4102 34.666 66.0142 34.762 65.6782 34.954C65.3422 35.146 65.0662 35.404 64.8502 35.728C64.6342 36.052 64.4722 36.43 64.3642 36.862C64.2562 37.294 64.2022 37.75 64.2022 38.23C64.2022 38.77 64.2442 39.268 64.3282 39.724C64.4122 40.168 64.5562 40.552 64.7602 40.876C64.9642 41.188 65.2282 41.434 65.5522 41.614C65.8882 41.794 66.3082 41.884 66.8122 41.884C67.3162 41.884 67.7362 41.782 68.0722 41.578C68.4202 41.374 68.6962 41.104 68.9002 40.768C69.1042 40.432 69.2482 40.048 69.3322 39.616C69.4162 39.184 69.4582 38.74 69.4582 38.284ZM76.6697 42.676C76.6697 42.808 76.6457 42.898 76.5977 42.946C76.5497 42.982 76.4657 43 76.3457 43H75.4637C75.3437 43 75.2597 42.982 75.2117 42.946C75.1637 42.898 75.1397 42.808 75.1397 42.676V34.9H72.3497C72.2177 34.9 72.1277 34.876 72.0797 34.828C72.0437 34.768 72.0257 34.69 72.0257 34.594V33.892C72.0257 33.784 72.0437 33.7 72.0797 33.64C72.1277 33.58 72.2177 33.55 72.3497 33.55H79.5857C79.7297 33.55 79.8197 33.58 79.8557 33.64C79.8917 33.7 79.9097 33.784 79.9097 33.892V34.594C79.9097 34.69 79.8917 34.768 79.8557 34.828C79.8197 34.876 79.7297 34.9 79.5857 34.9H76.6697V42.676ZM85.2018 41.848C85.6098 41.848 86.0058 41.794 86.3898 41.686C86.7858 41.578 87.1158 41.458 87.3798 41.326C87.4878 41.266 87.5658 41.254 87.6138 41.29C87.6618 41.314 87.7038 41.356 87.7398 41.416L88.0998 42.172C88.1958 42.328 88.1658 42.454 88.0098 42.55C87.5538 42.802 87.0558 42.97 86.5158 43.054C85.9758 43.15 85.4598 43.198 84.9678 43.198C83.6478 43.198 82.6398 42.796 81.9438 41.992C81.2478 41.176 80.8998 39.97 80.8998 38.374C80.8998 37.606 80.9958 36.916 81.1878 36.304C81.3918 35.68 81.6738 35.152 82.0338 34.72C82.4058 34.276 82.8558 33.94 83.3838 33.712C83.9118 33.472 84.5058 33.352 85.1658 33.352C85.6458 33.352 86.1018 33.4 86.5338 33.496C86.9778 33.592 87.4038 33.754 87.8118 33.982C87.9798 34.078 88.0158 34.204 87.9198 34.36L87.5418 35.098C87.5058 35.17 87.4638 35.224 87.4158 35.26C87.3798 35.284 87.3078 35.266 87.1998 35.206C86.9118 35.074 86.5998 34.966 86.2638 34.882C85.9278 34.798 85.5678 34.756 85.1838 34.756C84.7038 34.756 84.2898 34.858 83.9418 35.062C83.6058 35.254 83.3238 35.518 83.0958 35.854C82.8798 36.19 82.7178 36.574 82.6098 37.006C82.5138 37.438 82.4658 37.894 82.4658 38.374C82.4658 38.854 82.5078 39.304 82.5918 39.724C82.6758 40.144 82.8198 40.516 83.0238 40.84C83.2398 41.152 83.5218 41.398 83.8698 41.578C84.2178 41.758 84.6618 41.848 85.2018 41.848ZM93.6715 44.548C93.3955 45.376 93.0415 45.952 92.6095 46.276C92.1775 46.6 91.6255 46.762 90.9535 46.762C90.7855 46.762 90.5755 46.75 90.3235 46.726C90.0715 46.702 89.7955 46.648 89.4955 46.564C89.3035 46.516 89.2315 46.42 89.2795 46.276L89.4775 45.484C89.5015 45.388 89.5375 45.328 89.5855 45.304C89.6335 45.292 89.6995 45.298 89.7835 45.322C90.0115 45.382 90.1795 45.418 90.2875 45.43C90.4075 45.454 90.5455 45.466 90.7015 45.466C91.1095 45.466 91.4395 45.382 91.6915 45.214C91.9435 45.058 92.1475 44.74 92.3035 44.26C92.3155 44.224 92.3455 44.14 92.3935 44.008C92.4415 43.876 92.4895 43.732 92.5375 43.576C92.5975 43.432 92.6455 43.294 92.6815 43.162C92.7295 43.03 92.7595 42.946 92.7715 42.91H92.4295C92.2615 42.91 92.1115 42.886 91.9795 42.838C91.8595 42.778 91.7515 42.592 91.6555 42.28L88.8835 33.748C88.8475 33.616 88.9015 33.55 89.0455 33.55H90.2515C90.3835 33.55 90.4675 33.61 90.5035 33.73C90.5275 33.814 90.5755 33.982 90.6475 34.234C90.7315 34.474 90.8275 34.762 90.9355 35.098C91.0435 35.422 91.1575 35.776 91.2775 36.16C91.3975 36.532 91.5115 36.886 91.6195 37.222C91.7275 37.546 91.8175 37.834 91.8895 38.086C91.9735 38.338 92.0275 38.5 92.0515 38.572L92.9695 41.74H93.0775C93.1135 41.644 93.1855 41.428 93.2935 41.092C93.4015 40.756 93.5095 40.402 93.6175 40.03C93.7375 39.646 93.8455 39.304 93.9415 39.004C94.0495 38.692 94.1095 38.524 94.1215 38.5C94.1335 38.476 94.1695 38.368 94.2295 38.176C94.3015 37.972 94.3855 37.72 94.4815 37.42C94.5895 37.12 94.7035 36.796 94.8235 36.448C94.9435 36.088 95.0575 35.734 95.1655 35.386C95.2855 35.038 95.3935 34.72 95.4895 34.432C95.5975 34.132 95.6815 33.898 95.7415 33.73C95.7775 33.61 95.8615 33.55 95.9935 33.55H97.1455C97.2895 33.55 97.3435 33.616 97.3075 33.748L93.6715 44.548ZM102.334 42.676C102.334 42.808 102.31 42.898 102.262 42.946C102.214 42.982 102.13 43 102.01 43H101.128C101.008 43 100.924 42.982 100.876 42.946C100.828 42.898 100.804 42.808 100.804 42.676V34.9H98.0138C97.8818 34.9 97.7918 34.876 97.7438 34.828C97.7078 34.768 97.6898 34.69 97.6898 34.594V33.892C97.6898 33.784 97.7078 33.7 97.7438 33.64C97.7918 33.58 97.8818 33.55 98.0138 33.55H105.25C105.394 33.55 105.484 33.58 105.52 33.64C105.556 33.7 105.574 33.784 105.574 33.892V34.594C105.574 34.69 105.556 34.768 105.52 34.828C105.484 34.876 105.394 34.9 105.25 34.9H102.334V42.676ZM109.354 41.938C109.354 42.298 109.234 42.604 108.994 42.856C108.754 43.096 108.448 43.216 108.076 43.216C107.716 43.216 107.41 43.096 107.158 42.856C106.918 42.616 106.798 42.31 106.798 41.938C106.798 41.578 106.918 41.278 107.158 41.038C107.41 40.786 107.716 40.66 108.076 40.66C108.448 40.66 108.754 40.78 108.994 41.02C109.234 41.26 109.354 41.566 109.354 41.938ZM113.995 41.938C113.995 42.298 113.875 42.604 113.635 42.856C113.395 43.096 113.089 43.216 112.717 43.216C112.357 43.216 112.051 43.096 111.799 42.856C111.559 42.616 111.439 42.31 111.439 41.938C111.439 41.578 111.559 41.278 111.799 41.038C112.051 40.786 112.357 40.66 112.717 40.66C113.089 40.66 113.395 40.78 113.635 41.02C113.875 41.26 113.995 41.566 113.995 41.938ZM25.216 60.23C25.216 61.838 24.85 63.068 24.118 63.92C23.398 64.772 22.348 65.198 20.968 65.198C19.612 65.198 18.58 64.784 17.872 63.956C17.164 63.128 16.81 61.904 16.81 60.284C16.81 59.492 16.912 58.79 17.116 58.178C17.332 57.566 17.626 57.05 17.998 56.63C18.382 56.21 18.832 55.892 19.348 55.676C19.864 55.46 20.422 55.352 21.022 55.352C22.39 55.352 23.428 55.784 24.136 56.648C24.856 57.512 25.216 58.706 25.216 60.23ZM23.632 60.284C23.632 59.816 23.596 59.366 23.524 58.934C23.452 58.49 23.32 58.106 23.128 57.782C22.936 57.446 22.672 57.176 22.336 56.972C22 56.768 21.568 56.666 21.04 56.666C20.584 56.666 20.188 56.762 19.852 56.954C19.516 57.146 19.24 57.404 19.024 57.728C18.808 58.052 18.646 58.43 18.538 58.862C18.43 59.294 18.376 59.75 18.376 60.23C18.376 60.77 18.418 61.268 18.502 61.724C18.586 62.168 18.73 62.552 18.934 62.876C19.138 63.188 19.402 63.434 19.726 63.614C20.062 63.794 20.482 63.884 20.986 63.884C21.49 63.884 21.91 63.782 22.246 63.578C22.594 63.374 22.87 63.104 23.074 62.768C23.278 62.432 23.422 62.048 23.506 61.616C23.59 61.184 23.632 60.74 23.632 60.284ZM30.8435 64.676C30.8435 64.808 30.8195 64.898 30.7715 64.946C30.7235 64.982 30.6395 65 30.5195 65H29.6375C29.5175 65 29.4335 64.982 29.3855 64.946C29.3375 64.898 29.3135 64.808 29.3135 64.676V56.9H26.5235C26.3915 56.9 26.3015 56.876 26.2535 56.828C26.2175 56.768 26.1995 56.69 26.1995 56.594V55.892C26.1995 55.784 26.2175 55.7 26.2535 55.64C26.3015 55.58 26.3915 55.55 26.5235 55.55H33.7595C33.9035 55.55 33.9935 55.58 34.0295 55.64C34.0655 55.7 34.0835 55.784 34.0835 55.892V56.594C34.0835 56.69 34.0655 56.768 34.0295 56.828C33.9935 56.876 33.9035 56.9 33.7595 56.9H30.8435V64.676ZM39.3757 63.848C39.7837 63.848 40.1797 63.794 40.5637 63.686C40.9597 63.578 41.2897 63.458 41.5537 63.326C41.6617 63.266 41.7397 63.254 41.7877 63.29C41.8357 63.314 41.8777 63.356 41.9137 63.416L42.2737 64.172C42.3697 64.328 42.3397 64.454 42.1837 64.55C41.7277 64.802 41.2297 64.97 40.6897 65.054C40.1497 65.15 39.6337 65.198 39.1417 65.198C37.8217 65.198 36.8137 64.796 36.1177 63.992C35.4217 63.176 35.0737 61.97 35.0737 60.374C35.0737 59.606 35.1697 58.916 35.3617 58.304C35.5657 57.68 35.8477 57.152 36.2077 56.72C36.5797 56.276 37.0297 55.94 37.5577 55.712C38.0857 55.472 38.6797 55.352 39.3397 55.352C39.8197 55.352 40.2757 55.4 40.7077 55.496C41.1517 55.592 41.5777 55.754 41.9857 55.982C42.1537 56.078 42.1897 56.204 42.0937 56.36L41.7157 57.098C41.6797 57.17 41.6377 57.224 41.5897 57.26C41.5537 57.284 41.4817 57.266 41.3737 57.206C41.0857 57.074 40.7737 56.966 40.4377 56.882C40.1017 56.798 39.7417 56.756 39.3577 56.756C38.8777 56.756 38.4637 56.858 38.1157 57.062C37.7797 57.254 37.4977 57.518 37.2697 57.854C37.0537 58.19 36.8917 58.574 36.7837 59.006C36.6877 59.438 36.6397 59.894 36.6397 60.374C36.6397 60.854 36.6817 61.304 36.7657 61.724C36.8497 62.144 36.9937 62.516 37.1977 62.84C37.4137 63.152 37.6957 63.398 38.0437 63.578C38.3917 63.758 38.8357 63.848 39.3757 63.848ZM47.8454 66.548C47.5694 67.376 47.2154 67.952 46.7834 68.276C46.3514 68.6 45.7994 68.762 45.1274 68.762C44.9594 68.762 44.7494 68.75 44.4974 68.726C44.2454 68.702 43.9694 68.648 43.6694 68.564C43.4774 68.516 43.4054 68.42 43.4534 68.276L43.6514 67.484C43.6754 67.388 43.7114 67.328 43.7594 67.304C43.8074 67.292 43.8734 67.298 43.9574 67.322C44.1854 67.382 44.3534 67.418 44.4614 67.43C44.5814 67.454 44.7194 67.466 44.8754 67.466C45.2834 67.466 45.6134 67.382 45.8654 67.214C46.1174 67.058 46.3214 66.74 46.4774 66.26C46.4894 66.224 46.5194 66.14 46.5674 66.008C46.6154 65.876 46.6634 65.732 46.7114 65.576C46.7714 65.432 46.8194 65.294 46.8554 65.162C46.9034 65.03 46.9334 64.946 46.9454 64.91H46.6034C46.4354 64.91 46.2854 64.886 46.1534 64.838C46.0334 64.778 45.9254 64.592 45.8294 64.28L43.0574 55.748C43.0214 55.616 43.0754 55.55 43.2194 55.55H44.4254C44.5574 55.55 44.6414 55.61 44.6774 55.73C44.7014 55.814 44.7494 55.982 44.8214 56.234C44.9054 56.474 45.0014 56.762 45.1094 57.098C45.2174 57.422 45.3314 57.776 45.4514 58.16C45.5714 58.532 45.6854 58.886 45.7934 59.222C45.9014 59.546 45.9914 59.834 46.0634 60.086C46.1474 60.338 46.2014 60.5 46.2254 60.572L47.1434 63.74H47.2514C47.2874 63.644 47.3594 63.428 47.4674 63.092C47.5754 62.756 47.6834 62.402 47.7914 62.03C47.9114 61.646 48.0194 61.304 48.1154 61.004C48.2234 60.692 48.2834 60.524 48.2954 60.5C48.3074 60.476 48.3434 60.368 48.4034 60.176C48.4754 59.972 48.5594 59.72 48.6554 59.42C48.7634 59.12 48.8774 58.796 48.9974 58.448C49.1174 58.088 49.2314 57.734 49.3394 57.386C49.4594 57.038 49.5674 56.72 49.6634 56.432C49.7714 56.132 49.8554 55.898 49.9154 55.73C49.9514 55.61 50.0354 55.55 50.1674 55.55H51.3194C51.4634 55.55 51.5174 55.616 51.4814 55.748L47.8454 66.548ZM56.5076 64.676C56.5076 64.808 56.4836 64.898 56.4356 64.946C56.3876 64.982 56.3036 65 56.1836 65H55.3016C55.1816 65 55.0976 64.982 55.0496 64.946C55.0016 64.898 54.9776 64.808 54.9776 64.676V56.9H52.1876C52.0556 56.9 51.9656 56.876 51.9176 56.828C51.8816 56.768 51.8636 56.69 51.8636 56.594V55.892C51.8636 55.784 51.8816 55.7 51.9176 55.64C51.9656 55.58 52.0556 55.55 52.1876 55.55H59.4236C59.5676 55.55 59.6576 55.58 59.6936 55.64C59.7296 55.7 59.7476 55.784 59.7476 55.892V56.594C59.7476 56.69 59.7296 56.768 59.6936 56.828C59.6576 56.876 59.5676 56.9 59.4236 56.9H56.5076V64.676ZM67.4877 59.924C68.0637 60.116 68.4717 60.428 68.7117 60.86C68.9517 61.28 69.0717 61.736 69.0717 62.228C69.0717 62.648 68.9877 63.026 68.8197 63.362C68.6637 63.698 68.4477 63.992 68.1717 64.244C67.8957 64.484 67.5657 64.67 67.1817 64.802C66.8097 64.934 66.4017 65 65.9577 65H61.8537C61.6017 65 61.4097 64.934 61.2777 64.802C61.1577 64.67 61.0977 64.496 61.0977 64.28V56.27C61.0977 56.042 61.1637 55.868 61.2957 55.748C61.4277 55.616 61.6137 55.55 61.8537 55.55H65.7777C66.6177 55.55 67.3077 55.742 67.8477 56.126C68.3877 56.498 68.6577 57.092 68.6577 57.908C68.6577 58.316 68.5497 58.694 68.3337 59.042C68.1297 59.39 67.8537 59.648 67.5057 59.816L67.4877 59.924ZM62.6637 59.348H65.7057C65.8257 59.348 65.9637 59.33 66.1197 59.294C66.2877 59.246 66.4377 59.174 66.5697 59.078C66.7017 58.982 66.8157 58.856 66.9117 58.7C67.0077 58.532 67.0557 58.322 67.0557 58.07C67.0557 57.746 66.9417 57.47 66.7137 57.242C66.4857 57.014 66.1797 56.9 65.7957 56.9H62.6637V59.348ZM67.4517 62.138C67.4517 61.67 67.2957 61.292 66.9837 61.004C66.6837 60.716 66.2277 60.572 65.6157 60.572H62.6637V63.776H65.5977C65.9817 63.776 66.2937 63.722 66.5337 63.614C66.7737 63.506 66.9597 63.374 67.0917 63.218C67.2357 63.05 67.3317 62.87 67.3797 62.678C67.4277 62.486 67.4517 62.306 67.4517 62.138ZM74.989 63.848C75.397 63.848 75.793 63.794 76.177 63.686C76.573 63.578 76.903 63.458 77.167 63.326C77.275 63.266 77.353 63.254 77.401 63.29C77.449 63.314 77.491 63.356 77.527 63.416L77.887 64.172C77.983 64.328 77.953 64.454 77.797 64.55C77.341 64.802 76.843 64.97 76.303 65.054C75.763 65.15 75.247 65.198 74.755 65.198C73.435 65.198 72.427 64.796 71.731 63.992C71.035 63.176 70.687 61.97 70.687 60.374C70.687 59.606 70.783 58.916 70.975 58.304C71.179 57.68 71.461 57.152 71.821 56.72C72.193 56.276 72.643 55.94 73.171 55.712C73.699 55.472 74.293 55.352 74.953 55.352C75.433 55.352 75.889 55.4 76.321 55.496C76.765 55.592 77.191 55.754 77.599 55.982C77.767 56.078 77.803 56.204 77.707 56.36L77.329 57.098C77.293 57.17 77.251 57.224 77.203 57.26C77.167 57.284 77.095 57.266 76.987 57.206C76.699 57.074 76.387 56.966 76.051 56.882C75.715 56.798 75.355 56.756 74.971 56.756C74.491 56.756 74.077 56.858 73.729 57.062C73.393 57.254 73.111 57.518 72.883 57.854C72.667 58.19 72.505 58.574 72.397 59.006C72.301 59.438 72.253 59.894 72.253 60.374C72.253 60.854 72.295 61.304 72.379 61.724C72.463 62.144 72.607 62.516 72.811 62.84C73.027 63.152 73.309 63.398 73.657 63.578C74.005 63.758 74.449 63.848 74.989 63.848ZM82.0727 63.938C82.0727 64.298 81.9527 64.604 81.7127 64.856C81.4727 65.096 81.1667 65.216 80.7947 65.216C80.4347 65.216 80.1287 65.096 79.8767 64.856C79.6367 64.616 79.5167 64.31 79.5167 63.938C79.5167 63.578 79.6367 63.278 79.8767 63.038C80.1287 62.786 80.4347 62.66 80.7947 62.66C81.1667 62.66 81.4727 62.78 81.7127 63.02C81.9527 63.26 82.0727 63.566 82.0727 63.938ZM86.7133 63.938C86.7133 64.298 86.5933 64.604 86.3533 64.856C86.1133 65.096 85.8073 65.216 85.4353 65.216C85.0753 65.216 84.7693 65.096 84.5173 64.856C84.2773 64.616 84.1573 64.31 84.1573 63.938C84.1573 63.578 84.2773 63.278 84.5173 63.038C84.7693 62.786 85.0753 62.66 85.4353 62.66C85.8073 62.66 86.1133 62.78 86.3533 63.02C86.5933 63.26 86.7133 63.566 86.7133 63.938ZM18.772 86.676C18.772 86.808 18.742 86.898 18.682 86.946C18.634 86.982 18.55 87 18.43 87H17.548C17.428 87 17.338 86.982 17.278 86.946C17.218 86.898 17.188 86.808 17.188 86.676V77.856C17.188 77.724 17.218 77.64 17.278 77.604C17.338 77.568 17.428 77.55 17.548 77.55H18.43C18.55 77.55 18.634 77.568 18.682 77.604C18.742 77.64 18.772 77.724 18.772 77.856V81.258H23.416V77.856C23.416 77.724 23.44 77.64 23.488 77.604C23.548 77.568 23.638 77.55 23.758 77.55H24.64C24.772 77.55 24.856 77.568 24.892 77.604C24.94 77.64 24.964 77.724 24.964 77.856V86.676C24.964 86.808 24.94 86.898 24.892 86.946C24.856 86.982 24.772 87 24.64 87H23.758C23.638 87 23.548 86.982 23.488 86.946C23.44 86.898 23.416 86.808 23.416 86.676V82.59H18.772V86.676ZM31.1457 77.352C31.8297 77.352 32.4177 77.448 32.9097 77.64C33.4137 77.832 33.8217 78.108 34.1337 78.468C34.4577 78.816 34.6977 79.236 34.8537 79.728C35.0097 80.208 35.0877 80.742 35.0877 81.33C35.0877 81.618 35.0517 81.852 34.9797 82.032C34.9077 82.212 34.8057 82.356 34.6737 82.464C34.5537 82.56 34.4097 82.632 34.2417 82.68C34.0857 82.716 33.9177 82.734 33.7377 82.734H28.5717C28.5717 83.298 28.6497 83.778 28.8057 84.174C28.9617 84.57 29.1657 84.894 29.4177 85.146C29.6817 85.386 29.9817 85.56 30.3177 85.668C30.6657 85.776 31.0377 85.83 31.4337 85.83C31.8297 85.83 32.2197 85.782 32.6037 85.686C32.9877 85.578 33.3057 85.458 33.5577 85.326C33.7017 85.242 33.8157 85.272 33.8997 85.416L34.2777 86.172C34.3617 86.34 34.3257 86.46 34.1697 86.532C33.7377 86.796 33.2697 86.97 32.7657 87.054C32.2737 87.15 31.7877 87.198 31.3077 87.198C30.6357 87.198 30.0297 87.102 29.4897 86.91C28.9617 86.718 28.5117 86.424 28.1397 86.028C27.7677 85.632 27.4797 85.128 27.2757 84.516C27.0837 83.904 26.9877 83.172 26.9877 82.32C26.9877 81.528 27.0897 80.826 27.2937 80.214C27.5097 79.59 27.8037 79.068 28.1757 78.648C28.5477 78.228 28.9857 77.91 29.4897 77.694C29.9937 77.466 30.5457 77.352 31.1457 77.352ZM33.6117 81.474C33.6117 81.102 33.5757 80.748 33.5037 80.412C33.4317 80.064 33.2997 79.764 33.1077 79.512C32.9277 79.248 32.6757 79.044 32.3517 78.9C32.0397 78.744 31.6437 78.666 31.1637 78.666C30.7677 78.666 30.4137 78.744 30.1017 78.9C29.8017 79.056 29.5437 79.266 29.3277 79.53C29.1237 79.782 28.9617 80.076 28.8417 80.412C28.7217 80.748 28.6497 81.102 28.6257 81.474H33.6117ZM40.6873 86.676C40.6873 86.808 40.6633 86.898 40.6153 86.946C40.5673 86.982 40.4833 87 40.3633 87H39.4813C39.3613 87 39.2773 86.982 39.2293 86.946C39.1813 86.898 39.1573 86.808 39.1573 86.676V78.9H36.3673C36.2353 78.9 36.1453 78.876 36.0973 78.828C36.0613 78.768 36.0433 78.69 36.0433 78.594V77.892C36.0433 77.784 36.0613 77.7 36.0973 77.64C36.1453 77.58 36.2353 77.55 36.3673 77.55H43.6033C43.7473 77.55 43.8373 77.58 43.8733 77.64C43.9093 77.7 43.9273 77.784 43.9273 77.892V78.594C43.9273 78.69 43.9093 78.768 43.8733 78.828C43.8373 78.876 43.7473 78.9 43.6033 78.9H40.6873V86.676ZM56.087 77.442C56.783 77.466 57.425 77.586 58.013 77.802C58.601 78.018 59.099 78.33 59.507 78.738C59.927 79.146 60.251 79.65 60.479 80.25C60.719 80.838 60.839 81.51 60.839 82.266C60.839 82.962 60.737 83.604 60.533 84.192C60.341 84.768 60.047 85.272 59.651 85.704C59.255 86.136 58.757 86.484 58.157 86.748C57.569 87 56.879 87.15 56.087 87.198V90.384C56.087 90.492 56.063 90.558 56.015 90.582C55.979 90.618 55.907 90.636 55.799 90.636H54.791C54.695 90.636 54.623 90.618 54.575 90.582C54.527 90.558 54.503 90.492 54.503 90.384V87.198C53.723 87.15 53.033 87 52.433 86.748C51.845 86.484 51.353 86.136 50.957 85.704C50.561 85.272 50.261 84.768 50.057 84.192C49.865 83.604 49.769 82.962 49.769 82.266C49.769 81.51 49.883 80.838 50.111 80.25C50.351 79.65 50.681 79.146 51.101 78.738C51.533 78.33 52.037 78.018 52.613 77.802C53.189 77.586 53.819 77.466 54.503 77.442V74.112C54.503 73.992 54.527 73.92 54.575 73.896C54.623 73.86 54.695 73.842 54.791 73.842H55.799C55.907 73.842 55.979 73.86 56.015 73.896C56.063 73.92 56.087 73.992 56.087 74.112V77.442ZM59.327 82.302C59.327 81.258 59.057 80.424 58.517 79.8C57.977 79.164 57.167 78.816 56.087 78.756V85.92C56.675 85.872 57.173 85.74 57.581 85.524C57.989 85.308 58.319 85.038 58.571 84.714C58.835 84.39 59.027 84.024 59.147 83.616C59.267 83.196 59.327 82.758 59.327 82.302ZM51.263 82.302C51.263 82.758 51.329 83.196 51.461 83.616C51.593 84.024 51.791 84.396 52.055 84.732C52.331 85.056 52.667 85.326 53.063 85.542C53.471 85.746 53.951 85.872 54.503 85.92V78.756C53.423 78.816 52.613 79.164 52.073 79.8C51.533 80.424 51.263 81.258 51.263 82.302ZM70.8664 82.23C70.8664 83.838 70.5004 85.068 69.7684 85.92C69.0484 86.772 67.9984 87.198 66.6184 87.198C65.2624 87.198 64.2304 86.784 63.5224 85.956C62.8144 85.128 62.4604 83.904 62.4604 82.284C62.4604 81.492 62.5624 80.79 62.7664 80.178C62.9824 79.566 63.2764 79.05 63.6484 78.63C64.0324 78.21 64.4824 77.892 64.9984 77.676C65.5144 77.46 66.0724 77.352 66.6724 77.352C68.0404 77.352 69.0784 77.784 69.7864 78.648C70.5064 79.512 70.8664 80.706 70.8664 82.23ZM69.2824 82.284C69.2824 81.816 69.2464 81.366 69.1744 80.934C69.1024 80.49 68.9704 80.106 68.7784 79.782C68.5864 79.446 68.3224 79.176 67.9864 78.972C67.6504 78.768 67.2184 78.666 66.6904 78.666C66.2344 78.666 65.8384 78.762 65.5024 78.954C65.1664 79.146 64.8904 79.404 64.6744 79.728C64.4584 80.052 64.2964 80.43 64.1884 80.862C64.0804 81.294 64.0264 81.75 64.0264 82.23C64.0264 82.77 64.0684 83.268 64.1524 83.724C64.2364 84.168 64.3804 84.552 64.5844 84.876C64.7884 85.188 65.0524 85.434 65.3764 85.614C65.7124 85.794 66.1324 85.884 66.6364 85.884C67.1404 85.884 67.5604 85.782 67.8964 85.578C68.2444 85.374 68.5204 85.104 68.7244 84.768C68.9284 84.432 69.0724 84.048 69.1564 83.616C69.2404 83.184 69.2824 82.74 69.2824 82.284ZM76.4939 86.676C76.4939 86.808 76.4699 86.898 76.4219 86.946C76.3739 86.982 76.2899 87 76.1699 87H75.2879C75.1679 87 75.0839 86.982 75.0359 86.946C74.9879 86.898 74.9639 86.808 74.9639 86.676V78.9H72.1739C72.0419 78.9 71.9519 78.876 71.9039 78.828C71.8679 78.768 71.8499 78.69 71.8499 78.594V77.892C71.8499 77.784 71.8679 77.7 71.9039 77.64C71.9519 77.58 72.0419 77.55 72.1739 77.55H79.4099C79.5539 77.55 79.6439 77.58 79.6799 77.64C79.7159 77.7 79.7339 77.784 79.7339 77.892V78.594C79.7339 78.69 79.7159 78.768 79.6799 78.828C79.6439 78.876 79.5539 78.9 79.4099 78.9H76.4939V86.676ZM89.1301 82.23C89.1301 83.838 88.7641 85.068 88.0321 85.92C87.3121 86.772 86.2621 87.198 84.8821 87.198C83.5261 87.198 82.4941 86.784 81.7861 85.956C81.0781 85.128 80.7241 83.904 80.7241 82.284C80.7241 81.492 80.8261 80.79 81.0301 80.178C81.2461 79.566 81.5401 79.05 81.9121 78.63C82.2961 78.21 82.7461 77.892 83.2621 77.676C83.7781 77.46 84.3361 77.352 84.9361 77.352C86.3041 77.352 87.3421 77.784 88.0501 78.648C88.7701 79.512 89.1301 80.706 89.1301 82.23ZM87.5461 82.284C87.5461 81.816 87.5101 81.366 87.4381 80.934C87.3661 80.49 87.2341 80.106 87.0421 79.782C86.8501 79.446 86.5861 79.176 86.2501 78.972C85.9141 78.768 85.4821 78.666 84.9541 78.666C84.4981 78.666 84.1021 78.762 83.7661 78.954C83.4301 79.146 83.1541 79.404 82.9381 79.728C82.7221 80.052 82.5601 80.43 82.4521 80.862C82.3441 81.294 82.2901 81.75 82.2901 82.23C82.2901 82.77 82.3321 83.268 82.4161 83.724C82.5001 84.168 82.6441 84.552 82.8481 84.876C83.0521 85.188 83.3161 85.434 83.6401 85.614C83.9761 85.794 84.3961 85.884 84.9001 85.884C85.4041 85.884 85.8241 85.782 86.1601 85.578C86.5081 85.374 86.7841 85.104 86.9881 84.768C87.1921 84.432 87.3361 84.048 87.4201 83.616C87.5041 83.184 87.5461 82.74 87.5461 82.284ZM97.5032 86.73C97.5032 86.85 97.4792 86.928 97.4312 86.964C97.3952 86.988 97.3232 87 97.2152 87H96.2432C96.1472 87 96.0692 86.988 96.0092 86.964C95.9612 86.928 95.9372 86.85 95.9372 86.73V77.82C95.9372 77.7 95.9612 77.628 96.0092 77.604C96.0692 77.568 96.1472 77.55 96.2432 77.55H97.2152C97.3232 77.55 97.3952 77.568 97.4312 77.604C97.4792 77.628 97.5032 77.7 97.5032 77.82V81.312H99.0512C99.2312 81.312 99.4052 81.3 99.5732 81.276C99.7412 81.24 99.8972 81.174 100.041 81.078C100.197 80.982 100.335 80.85 100.455 80.682C100.587 80.514 100.695 80.292 100.779 80.016L101.481 77.766C101.505 77.67 101.541 77.61 101.589 77.586C101.649 77.562 101.709 77.55 101.769 77.55H102.759C102.855 77.55 102.915 77.586 102.939 77.658C102.963 77.718 102.969 77.778 102.957 77.838L102.273 80.196C102.177 80.58 102.039 80.922 101.859 81.222C101.679 81.51 101.427 81.726 101.103 81.87L101.085 81.906C101.553 82.05 101.883 82.272 102.075 82.572C102.267 82.86 102.423 83.196 102.543 83.58L103.461 86.694C103.473 86.754 103.473 86.82 103.461 86.892C103.449 86.964 103.377 87 103.245 87H102.183C102.135 87 102.081 86.994 102.021 86.982C101.961 86.958 101.919 86.898 101.895 86.802L101.013 83.832C100.881 83.376 100.647 83.052 100.311 82.86C99.9752 82.668 99.6212 82.572 99.2492 82.572H97.5032V86.73ZM113.142 82.23C113.142 83.838 112.776 85.068 112.044 85.92C111.324 86.772 110.274 87.198 108.894 87.198C107.538 87.198 106.506 86.784 105.798 85.956C105.09 85.128 104.736 83.904 104.736 82.284C104.736 81.492 104.838 80.79 105.042 80.178C105.258 79.566 105.552 79.05 105.924 78.63C106.308 78.21 106.758 77.892 107.274 77.676C107.79 77.46 108.348 77.352 108.948 77.352C110.316 77.352 111.354 77.784 112.062 78.648C112.782 79.512 113.142 80.706 113.142 82.23ZM111.558 82.284C111.558 81.816 111.522 81.366 111.45 80.934C111.378 80.49 111.246 80.106 111.054 79.782C110.862 79.446 110.598 79.176 110.262 78.972C109.926 78.768 109.494 78.666 108.966 78.666C108.51 78.666 108.114 78.762 107.778 78.954C107.442 79.146 107.166 79.404 106.95 79.728C106.734 80.052 106.572 80.43 106.464 80.862C106.356 81.294 106.302 81.75 106.302 82.23C106.302 82.77 106.344 83.268 106.428 83.724C106.512 84.168 106.656 84.552 106.86 84.876C107.064 85.188 107.328 85.434 107.652 85.614C107.988 85.794 108.408 85.884 108.912 85.884C109.416 85.884 109.836 85.782 110.172 85.578C110.52 85.374 110.796 85.104 111 84.768C111.204 84.432 111.348 84.048 111.432 83.616C111.516 83.184 111.558 82.74 111.558 82.284ZM123.197 82.266C123.197 82.95 123.107 83.592 122.927 84.192C122.759 84.78 122.501 85.302 122.153 85.758C121.817 86.202 121.385 86.556 120.857 86.82C120.329 87.072 119.717 87.198 119.021 87.198C118.685 87.198 118.319 87.18 117.923 87.144C117.539 87.108 117.125 87.024 116.681 86.892V90.384C116.681 90.492 116.657 90.558 116.609 90.582C116.573 90.618 116.507 90.636 116.411 90.636H115.403C115.307 90.636 115.235 90.618 115.187 90.582C115.139 90.558 115.115 90.492 115.115 90.384V78.324C115.115 78.168 115.187 78.066 115.331 78.018C115.931 77.754 116.549 77.58 117.185 77.496C117.821 77.4 118.427 77.352 119.003 77.352C119.723 77.352 120.347 77.478 120.875 77.73C121.403 77.97 121.835 78.312 122.171 78.756C122.519 79.188 122.777 79.704 122.945 80.304C123.113 80.904 123.197 81.558 123.197 82.266ZM121.559 82.266C121.559 81.606 121.493 81.048 121.361 80.592C121.229 80.136 121.037 79.77 120.785 79.494C120.545 79.218 120.251 79.02 119.903 78.9C119.567 78.768 119.183 78.702 118.751 78.702C118.439 78.702 118.085 78.732 117.689 78.792C117.293 78.852 116.957 78.936 116.681 79.044V85.524C117.137 85.656 117.527 85.746 117.851 85.794C118.187 85.83 118.493 85.848 118.769 85.848C119.177 85.848 119.549 85.788 119.885 85.668C120.233 85.536 120.527 85.332 120.767 85.056C121.019 84.768 121.211 84.396 121.343 83.94C121.487 83.484 121.559 82.926 121.559 82.266ZM133.216 82.23C133.216 83.838 132.85 85.068 132.118 85.92C131.398 86.772 130.348 87.198 128.968 87.198C127.612 87.198 126.58 86.784 125.872 85.956C125.164 85.128 124.81 83.904 124.81 82.284C124.81 81.492 124.912 80.79 125.116 80.178C125.332 79.566 125.626 79.05 125.998 78.63C126.382 78.21 126.832 77.892 127.348 77.676C127.864 77.46 128.422 77.352 129.022 77.352C130.39 77.352 131.428 77.784 132.136 78.648C132.856 79.512 133.216 80.706 133.216 82.23ZM131.632 82.284C131.632 81.816 131.596 81.366 131.524 80.934C131.452 80.49 131.32 80.106 131.128 79.782C130.936 79.446 130.672 79.176 130.336 78.972C130 78.768 129.568 78.666 129.04 78.666C128.584 78.666 128.188 78.762 127.852 78.954C127.516 79.146 127.24 79.404 127.024 79.728C126.808 80.052 126.646 80.43 126.538 80.862C126.43 81.294 126.376 81.75 126.376 82.23C126.376 82.77 126.418 83.268 126.502 83.724C126.586 84.168 126.73 84.552 126.934 84.876C127.138 85.188 127.402 85.434 127.726 85.614C128.062 85.794 128.482 85.884 128.986 85.884C129.49 85.884 129.91 85.782 130.246 85.578C130.594 85.374 130.87 85.104 131.074 84.768C131.278 84.432 131.422 84.048 131.506 83.616C131.59 83.184 131.632 82.74 131.632 82.284ZM134.65 77.82C134.65 77.7 134.674 77.628 134.722 77.604C134.77 77.568 134.842 77.55 134.938 77.55H135.946C136.042 77.55 136.114 77.568 136.162 77.604C136.21 77.628 136.234 77.7 136.234 77.82V79.926C136.234 80.382 136.276 80.754 136.36 81.042C136.456 81.33 136.594 81.558 136.774 81.726C136.966 81.882 137.206 81.996 137.494 82.068C137.794 82.128 138.142 82.158 138.538 82.158C138.85 82.158 139.21 82.134 139.618 82.086C140.026 82.026 140.386 81.936 140.698 81.816V77.82C140.698 77.7 140.716 77.628 140.752 77.604C140.8 77.568 140.878 77.55 140.986 77.55H141.976C142.072 77.55 142.144 77.568 142.192 77.604C142.24 77.628 142.264 77.7 142.264 77.82V86.73C142.264 86.85 142.24 86.928 142.192 86.964C142.144 86.988 142.072 87 141.976 87H140.986C140.878 87 140.8 86.988 140.752 86.964C140.716 86.928 140.698 86.85 140.698 86.73V83.148C140.35 83.268 139.942 83.364 139.474 83.436C139.018 83.496 138.622 83.526 138.286 83.526C137.014 83.526 136.09 83.232 135.514 82.644C134.938 82.044 134.65 81.126 134.65 79.89V77.82ZM148.409 77.352C149.093 77.352 149.681 77.448 150.173 77.64C150.677 77.832 151.085 78.108 151.397 78.468C151.721 78.816 151.961 79.236 152.117 79.728C152.273 80.208 152.351 80.742 152.351 81.33C152.351 81.618 152.315 81.852 152.243 82.032C152.171 82.212 152.069 82.356 151.937 82.464C151.817 82.56 151.673 82.632 151.505 82.68C151.349 82.716 151.181 82.734 151.001 82.734H145.835C145.835 83.298 145.913 83.778 146.069 84.174C146.225 84.57 146.429 84.894 146.681 85.146C146.945 85.386 147.245 85.56 147.581 85.668C147.929 85.776 148.301 85.83 148.697 85.83C149.093 85.83 149.483 85.782 149.867 85.686C150.251 85.578 150.569 85.458 150.821 85.326C150.965 85.242 151.079 85.272 151.163 85.416L151.541 86.172C151.625 86.34 151.589 86.46 151.433 86.532C151.001 86.796 150.533 86.97 150.029 87.054C149.537 87.15 149.051 87.198 148.571 87.198C147.899 87.198 147.293 87.102 146.753 86.91C146.225 86.718 145.775 86.424 145.403 86.028C145.031 85.632 144.743 85.128 144.539 84.516C144.347 83.904 144.251 83.172 144.251 82.32C144.251 81.528 144.353 80.826 144.557 80.214C144.773 79.59 145.067 79.068 145.439 78.648C145.811 78.228 146.249 77.91 146.753 77.694C147.257 77.466 147.809 77.352 148.409 77.352ZM150.875 81.474C150.875 81.102 150.839 80.748 150.767 80.412C150.695 80.064 150.563 79.764 150.371 79.512C150.191 79.248 149.939 79.044 149.615 78.9C149.303 78.744 148.907 78.666 148.427 78.666C148.031 78.666 147.677 78.744 147.365 78.9C147.065 79.056 146.807 79.266 146.591 79.53C146.387 79.782 146.225 80.076 146.105 80.412C145.985 80.748 145.913 81.102 145.889 81.474H150.875Z" fill="#6F93F3"/>
</svg>
