<svg width="832" height="93" viewBox="0 0 832 93" fill="none" xmlns="http://www.w3.org/2000/svg">
<g clip-path="url(#clip0_155_132)">
<path d="M416 0L0 0L0 25.7L0 51.4L5.3 46.2L10.5 41L15.8 46.2L21 51.5L26.3 46.2L31.6 41L36.3 45.8C38.9 48.4 41 51 41 51.5C41 52 34.1 59.3 25.8 67.7L10.5 83L15.5 88L20.4 93L25.7 87.8L31 82.6L35.8 87.3L40.6 92L44.4 88C46.5 85.8 48.8 84 49.6 84C51.8 84 51.3 83.1 46.5 77.9C44 75.3 42 72.7 42 72.3C42 71.8 44.3 69.2 47 66.5L52 61.6L57 66.5C59.8 69.2 62 71.8 62 72.3C62 72.7 59.9 75.3 57.3 78.1L52.7 83.1L57 87.5C59.4 90 61.9 92 62.4 92C63 92 65.6 89.9 68.2 87.3L73 82.6L78.3 87.8L83.6 93L88.5 88L93.5 83L78.2 67.7C69.9 59.3 63 52 63 51.5C63 51 65.1 48.4 67.7 45.8L72.4 41L77.7 46.2L83 51.4L88.3 46.2L93.5 41L98.8 46.2L104 51.5L109.3 46.2L114.5 41L119.8 46.2L125 51.5L130.3 46.2L135.6 41L140.3 45.8C142.9 48.4 145 51 145 51.5C145 52 138.1 59.3 129.8 67.7L114.5 83L119.5 88L124.4 93L129.7 87.8L135 82.6L140.3 87.8L145.6 93L150.3 88.2C152.9 85.6 155 83.2 155 82.9C155 82.6 153 80.3 150.5 77.8C148 75.3 146 72.8 146 72.3C146 71.8 148.3 69.2 151 66.5L156 61.6L161 66.5C163.8 69.2 166 71.8 166 72.3C166 72.8 164 75.3 161.5 77.8C159 80.3 157 82.6 157 83C157 83.9 165.5 92 166.5 92C167 92 169.6 89.9 172.2 87.3L177 82.6L182.3 87.8L187.6 93L191.8 88.7C194.1 86.4 196 83.8 196 82.9C196 82.1 189.5 75 181.5 67C173.5 59 167 52.1 167 51.5C167 51 169.1 48.4 171.7 45.8L176.4 41L181.7 46.2L187 51.4L192.3 46.2L197.5 41L202.8 46.2L208 51.5L213.3 46.2L218.5 41L223.8 46.2L229 51.5L234.3 46.2L239.6 41L244.3 45.8C246.9 48.4 249 51 249 51.5C249 52 242.1 59.3 233.8 67.7L218.5 83L223.5 88L228.4 93L233.7 87.8L239 82.6L243.9 87.4L248.9 92.3L253.9 88.1C256.7 85.7 259 83.5 259 83.1C259 82.7 257 80.3 254.5 77.8C252 75.3 250 72.8 250 72.3C250 71.8 252.2 69.2 255 66.5L260 61.6L265 66.5C267.7 69.2 270 71.8 270 72.3C270 72.8 268 75.3 265.5 77.8C263 80.3 261 82.6 261 82.9C261 83.2 263.1 85.6 265.7 88.2L270.4 93L275.7 87.8L281 82.6L286.3 87.8L291.6 93L296.5 88L301.5 83L286.2 67.7C277.9 59.3 271 52 271 51.5C271 51 273.1 48.4 275.7 45.8L280.4 41L285.7 46.2L291 51.4L296.3 46.2L301.5 41L306.8 46.2L312 51.5L317.3 46.2L322.5 41L327.8 46.2L333 51.5L338.3 46.2L343.6 41L348.3 45.8C350.9 48.4 353 51 353 51.5C353 52 346.2 59.3 337.8 67.7L322.6 83L326 86.6C332 92.8 332.6 92.8 338.1 87.4L343 82.6L348.3 87.8L353.6 93L358.3 88.2C360.9 85.6 363 83.2 363 82.9C363 82.6 361 80.3 358.5 77.8C356 75.3 354 72.8 354 72.3C354 71.8 356.3 69.2 359 66.5L364 61.6L369 66.5C371.8 69.2 374 71.8 374 72.2C374 72.6 372 75 369.5 77.6C367 80.1 365 82.5 365 82.8C365 83.2 367.1 85.6 369.7 88.2L374.4 93L379.7 87.8L385 82.6L389.8 87.3C392.4 89.9 395 92 395.6 92C396.1 92 398.6 90 401 87.5L405.4 83L390.2 67.7C381.9 59.3 375 52 375 51.5C375 51 377.1 48.4 379.7 45.8L384.4 41L389.7 46.2L395 51.4L400.3 46.2L405.5 41L410.8 46.2L416 51.5L421.3 46.2L426.5 41L431.8 46.2L437 51.5L442.3 46.2L447.6 41L452.3 45.8C454.9 48.4 457 51 457 51.5C457 52 450.1 59.3 441.8 67.7L426.5 83L431.5 88L436.4 93L441.7 87.8L447 82.6L452.3 87.8L457.6 93L462.3 88.2C464.9 85.6 467 83.2 467 82.9C467 82.6 465 80.3 462.5 77.8C460 75.3 458 72.8 458 72.3C458 71.8 460.3 69.2 463 66.5L468 61.6L473 66.5C475.8 69.2 478 71.8 478 72.2C478 72.6 476 75 473.5 77.6C471 80.1 469 82.5 469 82.8C469 83.2 471.1 85.6 473.7 88.2L478.4 93L483.7 87.8L489 82.6L493.8 87.3C496.4 89.9 499 92 499.6 92C500.1 92 502.6 90 505 87.5L509.4 83L494.2 67.7C485.9 59.3 479 52 479 51.5C479 51 481.1 48.4 483.7 45.8L488.4 41L493.7 46.2L499 51.4L504.3 46.2L509.5 41L514.8 46.2L520 51.5L525.3 46.2L530.5 41L535.8 46.2L541 51.5L546.3 46.2L551.6 41L556.3 45.8C558.9 48.4 561 51 561 51.5C561 52 554.1 59.3 545.8 67.7L530.5 83L535.5 88L540.4 93L545.7 87.8L551 82.6L556.3 87.8L561.6 93L566.3 88.2C568.9 85.6 571 83.2 571 82.9C571 82.6 569 80.3 566.5 77.8C564 75.3 562 72.8 562 72.3C562 71.8 564.3 69.2 567 66.5L572 61.6L577 66.5C579.8 69.2 582 71.8 582 72.2C582 72.6 580 75 577.5 77.6C575 80.1 573 82.5 573 82.8C573 83.2 575.1 85.6 577.7 88.2L582.4 93L587.7 87.8L593 82.6L598.3 87.8L603.6 93L608.5 88L613.5 83L598.2 67.7C589.9 59.3 583 52 583 51.5C583 51 585.1 48.4 587.7 45.8L592.4 41L597.7 46.2L603 51.4L608.3 46.2L613.5 41L618.8 46.2L624 51.5L629.3 46.2L634.5 41L639.8 46.2L645 51.5L650.3 46.2L655.6 41L660.3 45.8C662.9 48.4 665 51 665 51.5C665 52 658.1 59.3 649.8 67.7L634.6 83L639 87.5C641.4 90 643.9 92 644.4 92C645 92 647.6 89.9 650.2 87.3L655 82.6L660.3 87.8L665.6 93L670.3 88.2C672.9 85.6 675 83.2 675 82.9C675 82.6 673 80.3 670.5 77.8C668 75.3 666 72.8 666 72.3C666 71.8 668.3 69.2 671 66.5L676 61.6L681 66.5C683.8 69.2 686 71.8 686 72.2C686 72.6 684 75 681.5 77.6C679 80.1 677 82.5 677 82.8C677 83.2 679.1 85.6 681.7 88.2L686.4 93L691.7 87.8L697 82.6L701.8 87.3C704.4 89.9 707 92 707.6 92C708.1 92 710.6 90 713 87.5L717.4 83L702.2 67.7C693.9 59.3 687 52 687 51.5C687 51 689.1 48.4 691.7 45.8L696.4 41L701.7 46.2L707 51.4L712.3 46.2L717.5 41L722.8 46.2L728 51.5L733.2 46.2L738.5 41L743.7 46.2L749 51.4L754.3 46.2L759.6 41L764.3 45.8C766.9 48.4 769 51 769 51.5C769 52 762.1 59.3 753.8 67.7L738.5 83L743.5 88L748.4 93L753.7 87.8L759 82.6L764.3 87.8L769.6 93L774.3 88.2C776.9 85.6 779 83.2 779 82.9C779 82.6 777 80.3 774.5 77.8C772 75.3 770 72.8 770 72.3C770 71.8 772.3 69.2 775 66.5L780 61.6L785 66.5C787.8 69.2 790 71.8 790 72.2C790 72.6 788 75 785.5 77.6C783 80.1 781 82.5 781 82.8C781 83.9 789.4 92 790.4 92C791 92 793.6 89.9 796.2 87.3L800.9 82.7L805.2 86.5C807.6 88.7 810 91 810.5 91.8C811.4 92.9 812.4 92.3 815.8 88.6C818.1 86.1 820 83.5 820 82.8C820 82.1 813.5 75 805.5 67C797.5 59 791 52.1 791 51.5C791 51 793.1 48.4 795.7 45.8L800.4 41L805.7 46.2L811 51.4L816.3 46.2L821.5 41L826.8 46.2L832 51.5V25.7V0L416 0Z" fill="#0038A8"/>
<path d="M826.8 56.8L821.5 62L826.8 67.2L832 72.5V62V51.5L826.8 56.8Z" fill="#0038A8"/>
<path d="M733 56.5L728 51.5L722.7 56.8L717.5 62L722.7 67.2L728 72.5L733 67.5C735.7 64.8 738 62.3 738 62C738 61.7 735.7 59.2 733 56.5Z" fill="#0038A8"/>
<path d="M629 56.5L624 51.5L618.7 56.8L613.5 62L618.7 67.2L624 72.5L629 67.5C631.7 64.8 634 62.3 634 62C634 61.7 631.7 59.2 629 56.5Z" fill="#0038A8"/>
<path d="M525 56.5L520 51.5L514.7 56.8L509.5 62L514.7 67.2L520 72.5L525 67.5C527.7 64.8 530 62.3 530 62C530 61.7 527.7 59.2 525 56.5Z" fill="#0038A8"/>
<path d="M421 56.5L416 51.5L410.7 56.8L405.5 62L410.7 67.2L416 72.5L421 67.5C423.7 64.8 426 62.3 426 62C426 61.7 423.7 59.2 421 56.5Z" fill="#0038A8"/>
<path d="M213 56.5L208 51.5L202.7 56.8L197.5 62L202.7 67.2L208 72.5L213 67.5C215.7 64.8 218 62.3 218 62C218 61.7 215.7 59.2 213 56.5Z" fill="#0038A8"/>
<path d="M109 56.5L104 51.5L98.7 56.8L93.5 62L98.7 67.2L104 72.5L109 67.5C111.7 64.8 114 62.3 114 62C114 61.7 111.7 59.2 109 56.5Z" fill="#0038A8"/>
<path d="M5 56.5001L0 51.6001L0 62.0001L0 72.4001L5 67.5001C7.8 64.8001 10 62.3001 10 62.0001C10 61.7001 7.8 59.2001 5 56.5001Z" fill="#0038A8"/>
<rect x="832" width="30" height="832" transform="rotate(90 832 0)" fill="#008000"/>
<rect x="311.964" y="51.0356" width="15.6066" height="15.6066" transform="rotate(45 311.964 51.0356)" fill="#0038A8"/>
</g>
<defs>
<clipPath id="clip0_155_132">
<rect width="832" height="93" fill="white"/>
</clipPath>
</defs>
</svg>
