<svg width="97" height="832" viewBox="0 0 97 832" fill="none" xmlns="http://www.w3.org/2000/svg">
<path d="M0 416V832H25.7H51.4L46.2 826.7L41 821.5L46.2 816.2L51.5 811L46.2 805.7L41 800.4L45.8 795.7C48.4 793.1 51 791 51.5 791C52 791 59.3 797.9 67.7 806.2L83 821.5L88 816.5L93 811.6L87.8 806.3L82.6 801L87.3 796.2L92 791.4L88 787.6C85.8 785.5 84 783.2 84 782.4C84 780.2 83.1 780.7 77.9 785.5C75.3 788 72.7 790 72.3 790C71.8 790 69.2 787.7 66.5 785L61.6 780L66.5 775C69.2 772.2 71.8 770 72.3 770C72.7 770 75.3 772.1 78.1 774.7L83.1 779.3L87.5 775C90 772.6 92 770.1 92 769.6C92 769 89.9 766.4 87.3 763.8L82.6 759L87.8 753.7L93 748.4L88 743.5L83 738.5L67.7 753.8C59.3 762.1 52 769 51.5 769C51 769 48.4 766.9 45.8 764.3L41 759.6L46.2 754.3L51.4 749L46.2 743.7L41 738.5L46.2 733.2L51.5 728L46.2 722.7L41 717.5L46.2 712.2L51.5 707L46.2 701.7L41 696.4L45.8 691.7C48.4 689.1 51 687 51.5 687C52 687 59.3 693.9 67.7 702.2L83 717.5L88 712.5L93 707.6L87.8 702.3L82.6 697L87.8 691.7L93 686.4L88.2 681.7C85.6 679.1 83.2 677 82.9 677C82.6 677 80.3 679 77.8 681.5C75.3 684 72.8 686 72.3 686C71.8 686 69.2 683.7 66.5 681L61.6 676L66.5 671C69.2 668.2 71.8 666 72.3 666C72.8 666 75.3 668 77.8 670.5C80.3 673 82.6 675 83 675C83.9 675 92 666.5 92 665.5C92 665 89.9 662.4 87.3 659.8L82.6 655L87.8 649.7L93 644.4L88.7 640.2C86.4 637.9 83.8 636 82.9 636C82.1 636 75 642.5 67 650.5C59 658.5 52.1 665 51.5 665C51 665 48.4 662.9 45.8 660.3L41 655.6L46.2 650.3L51.4 645L46.2 639.7L41 634.5L46.2 629.2L51.5 624L46.2 618.7L41 613.5L46.2 608.2L51.5 603L46.2 597.7L41 592.4L45.8 587.7C48.4 585.1 51 583 51.5 583C52 583 59.3 589.9 67.7 598.2L83 613.5L88 608.5L93 603.6L87.8 598.3L82.6 593L87.4 588.1L92.3 583.1L88.1 578.1C85.7 575.3 83.5 573 83.1 573C82.7 573 80.3 575 77.8 577.5C75.3 580 72.8 582 72.3 582C71.8 582 69.2 579.8 66.5 577L61.6 572L66.5 567C69.2 564.3 71.8 562 72.3 562C72.8 562 75.3 564 77.8 566.5C80.3 569 82.6 571 82.9 571C83.2 571 85.6 568.9 88.2 566.3L93 561.6L87.8 556.3L82.6 551L87.8 545.7L93 540.4L88 535.5L83 530.5L67.7 545.8C59.3 554.1 52 561 51.5 561C51 561 48.4 558.9 45.8 556.3L41 551.6L46.2 546.3L51.4 541L46.2 535.7L41 530.5L46.2 525.2L51.5 520L46.2 514.7L41 509.5L46.2 504.2L51.5 499L46.2 493.7L41 488.4L45.8 483.7C48.4 481.1 51 479 51.5 479C52 479 59.3 485.8 67.7 494.2L83 509.4L86.6 506C92.8 500 92.8 499.4 87.4 493.9L82.6 489L87.8 483.7L93 478.4L88.2 473.7C85.6 471.1 83.2 469 82.9 469C82.6 469 80.3 471 77.8 473.5C75.3 476 72.8 478 72.3 478C71.8 478 69.2 475.7 66.5 473L61.6 468L66.5 463C69.2 460.2 71.8 458 72.2 458C72.6 458 75 460 77.6 462.5C80.1 465 82.5 467 82.8 467C83.2 467 85.6 464.9 88.2 462.3L93 457.6L87.8 452.3L82.6 447L87.3 442.2C89.9 439.6 92 437 92 436.4C92 435.9 90 433.4 87.5 431L83 426.6L67.7 441.8C59.3 450.1 52 457 51.5 457C51 457 48.4 454.9 45.8 452.3L41 447.6L46.2 442.3L51.4 437L46.2 431.7L41 426.5L46.2 421.2L51.5 416L46.2 410.7L41 405.5L46.2 400.2L51.5 395L46.2 389.7L41 384.4L45.8 379.7C48.4 377.1 51 375 51.5 375C52 375 59.3 381.9 67.7 390.2L83 405.5L88 400.5L93 395.6L87.8 390.3L82.6 385L87.8 379.7L93 374.4L88.2 369.7C85.6 367.1 83.2 365 82.9 365C82.6 365 80.3 367 77.8 369.5C75.3 372 72.8 374 72.3 374C71.8 374 69.2 371.7 66.5 369L61.6 364L66.5 359C69.2 356.2 71.8 354 72.2 354C72.6 354 75 356 77.6 358.5C80.1 361 82.5 363 82.8 363C83.2 363 85.6 360.9 88.2 358.3L93 353.6L87.8 348.3L82.6 343L87.3 338.2C89.9 335.6 92 333 92 332.4C92 331.9 90 329.4 87.5 327L83 322.6L67.7 337.8C59.3 346.1 52 353 51.5 353C51 353 48.4 350.9 45.8 348.3L41 343.6L46.2 338.3L51.4 333L46.2 327.7L41 322.5L46.2 317.2L51.5 312L46.2 306.7L41 301.5L46.2 296.2L51.5 291L46.2 285.7L41 280.4L45.8 275.7C48.4 273.1 51 271 51.5 271C52 271 59.3 277.9 67.7 286.2L83 301.5L88 296.5L93 291.6L87.8 286.3L82.6 281L87.8 275.7L93 270.4L88.2 265.7C85.6 263.1 83.2 261 82.9 261C82.6 261 80.3 263 77.8 265.5C75.3 268 72.8 270 72.3 270C71.8 270 69.2 267.7 66.5 265L61.6 260L66.5 255C69.2 252.2 71.8 250 72.2 250C72.6 250 75 252 77.6 254.5C80.1 257 82.5 259 82.8 259C83.2 259 85.6 256.9 88.2 254.3L93 249.6L87.8 244.3L82.6 239L87.8 233.7L93 228.4L88 223.5L83 218.5L67.7 233.8C59.3 242.1 52 249 51.5 249C51 249 48.4 246.9 45.8 244.3L41 239.6L46.2 234.3L51.4 229L46.2 223.7L41 218.5L46.2 213.2L51.5 208L46.2 202.7L41 197.5L46.2 192.2L51.5 187L46.2 181.7L41 176.4L45.8 171.7C48.4 169.1 51 167 51.5 167C52 167 59.3 173.9 67.7 182.2L83 197.4L87.5 193C90 190.6 92 188.1 92 187.6C92 187 89.9 184.4 87.3 181.8L82.6 177L87.8 171.7L93 166.4L88.2 161.7C85.6 159.1 83.2 157 82.9 157C82.6 157 80.3 159 77.8 161.5C75.3 164 72.8 166 72.3 166C71.8 166 69.2 163.7 66.5 161L61.6 156L66.5 151C69.2 148.2 71.8 146 72.2 146C72.6 146 75 148 77.6 150.5C80.1 153 82.5 155 82.8 155C83.2 155 85.6 152.9 88.2 150.3L93 145.6L87.8 140.3L82.6 135L87.3 130.2C89.9 127.6 92 125 92 124.4C92 123.9 90 121.4 87.5 119L83 114.6L67.7 129.8C59.3 138.1 52 145 51.5 145C51 145 48.4 142.9 45.8 140.3L41 135.6L46.2 130.3L51.4 125L46.2 119.7L41 114.5L46.2 109.2L51.5 104L46.2 98.8L41 93.5L46.2 88.3L51.4 83L46.2 77.7L41 72.4L45.8 67.7C48.4 65.1 51 63 51.5 63C52 63 59.3 69.9 67.7 78.2L83 93.5L88 88.5L93 83.6L87.8 78.3L82.6 73L87.8 67.7L93 62.4L88.2 57.7C85.6 55.1 83.2 53 82.9 53C82.6 53 80.3 55 77.8 57.5C75.3 60 72.8 62 72.3 62C71.8 62 69.2 59.7 66.5 57L61.6 52L66.5 47C69.2 44.2 71.8 42 72.2 42C72.6 42 75 44 77.6 46.5C80.1 49 82.5 51 82.8 51C83.9 51 92 42.6 92 41.6C92 41 89.9 38.4 87.3 35.8L82.7 31.1L86.5 26.8C88.7 24.4 91 22 91.8 21.5C92.9 20.6 92.3 19.6 88.6 16.2C86.1 13.9 83.5 12 82.8 12C82.1 12 75 18.5 67 26.5C59 34.5 52.1 41 51.5 41C51 41 48.4 38.9 45.8 36.3L41 31.6L46.2 26.3L51.4 21L46.2 15.7L41 10.5L46.2 5.19999L51.5 -1.23978e-05H25.7H0V416Z" fill="#0038A8"/>
<path d="M56.8 5.2L62 10.5L67.2 5.2L72.5 -1.56462e-07H62H51.5L56.8 5.2Z" fill="#0038A8"/>
<path d="M56.5 98.9998L51.5 104L56.8 109.3L62 114.5L67.2 109.3L72.5 104L67.5 98.9998C64.8 96.2998 62.3 93.9998 62 93.9998C61.7 93.9998 59.2 96.2998 56.5 98.9998Z" fill="#0038A8"/>
<path d="M56.5 203L51.5 208L56.8 213.3L62 218.5L67.2 213.3L72.5 208L67.5 203C64.8 200.3 62.3 198 62 198C61.7 198 59.2 200.3 56.5 203Z" fill="#0038A8"/>
<path d="M56.5 307L51.5 312L56.8 317.3L62 322.5L67.2 317.3L72.5 312L67.5 307C64.8 304.3 62.3 302 62 302C61.7 302 59.2 304.3 56.5 307Z" fill="#0038A8"/>
<path d="M56.5 411L51.5 416L56.8 421.3L62 426.5L67.2 421.3L72.5 416L67.5 411C64.8 408.3 62.3 406 62 406C61.7 406 59.2 408.3 56.5 411Z" fill="#0038A8"/>
<path d="M56.5 619L51.5 624L56.8 629.3L62 634.5L67.2 629.3L72.5 624L67.5 619C64.8 616.3 62.3 614 62 614C61.7 614 59.2 616.3 56.5 619Z" fill="#0038A8"/>
<path d="M56.5 723L51.5 728L56.8 733.3L62 738.5L67.2 733.3L72.5 728L67.5 723C64.8 720.3 62.3 718 62 718C61.7 718 59.2 720.3 56.5 723Z" fill="#0038A8"/>
<path d="M56.5001 827L51.6001 832H62.0001H72.4001L67.5001 827C64.8001 824.2 62.3001 822 62.0001 822C61.7001 822 59.2001 824.2 56.5001 827Z" fill="#0038A8"/>
<rect width="30" height="832" fill="#008000"/>
<rect x="51.0355" y="520.036" width="15.6066" height="15.6066" transform="rotate(-45 51.0355 520.036)" fill="#0038A8"/>
</svg>
