<svg width="45" height="59" viewBox="0 0 45 59" fill="none" xmlns="http://www.w3.org/2000/svg">
<g clip-path="url(#clip0_123_234)">
<rect x="16.1213" y="29.5563" width="19" height="19" transform="rotate(-45 16.1213 29.5563)" fill="white" stroke="#0038A8" stroke-width="3"/>
<mask id="path-2-inside-1_123_234" fill="white">
<path d="M0 43.5563L15.5563 59.1127L31.1127 43.5563L15.5563 28L0 43.5563Z"/>
</mask>
<path d="M13.435 56.9914L28.9914 41.435L33.234 45.6777L17.6777 61.234L13.435 56.9914ZM17.6777 30.1213L2.12132 45.6777L-2.12132 41.435L13.435 25.8787L17.6777 30.1213Z" fill="#0038A8" mask="url(#path-2-inside-1_123_234)"/>
<mask id="path-4-inside-2_123_234" fill="white">
<path d="M0 15.5563L15.5563 31.1127L31.1127 15.5563L15.5563 -1.34706e-05L0 15.5563Z"/>
</mask>
<path d="M15.5563 31.1127L17.6777 33.234L15.5563 35.3553L13.435 33.234L15.5563 31.1127ZM31.1127 15.5563L33.234 13.435L35.3553 15.5563L33.234 17.6777L31.1127 15.5563ZM2.12132 13.435L17.6777 28.9914L13.435 33.234L-2.12132 17.6777L2.12132 13.435ZM13.435 28.9914L28.9914 13.435L33.234 17.6777L17.6777 33.234L13.435 28.9914ZM28.9914 17.6777L13.435 2.12131L17.6777 -2.12133L33.234 13.435L28.9914 17.6777Z" fill="#0038A8" mask="url(#path-4-inside-2_123_234)"/>
</g>
<defs>
<clipPath id="clip0_123_234">
<rect width="45" height="59" fill="white"/>
</clipPath>
</defs>
</svg>
